Notch Sans-Bold.ufo
<glyph name="exclam" format="1">
  <advance width="262"/>
  <unicode hex="0021"/>
  <outline>
    <contour>
      <point x="43" y="700" type="line"/>
      <point x="67" y="230" type="line"/>
      <point x="194" y="230" type="line"/>
      <point x="219" y="700" type="line"/>
    </contour>
    <component base="period" xOffset="30"/>
  </outline>
</glyph>
<glyph name="numbersign" format="1">
  <advance width="600"/>
  <unicode hex="0023"/>
  <outline>
    <contour>
      <point x="187" y="700" type="line"/>
      <point x="22" y="0" type="line"/>
      <point x="184" y="0" type="line"/>
      <point x="349" y="700" type="line"/>
    </contour>
    <contour>
      <point x="415" y="700" type="line"/>
      <point x="250" y="0" type="line"/>
      <point x="412" y="0" type="line"/>
      <point x="577" y="700" type="line"/>
    </contour>
    <component base="emdash" yOffset="-38" yScale="0.888"/>
    <component base="emdash" xOffset="49" yOffset="175" yScale="0.888"/>
  </outline>
</glyph>
<glyph name="dollar" format="1">
  <advance width="476"/>
  <unicode hex="0024"/>
  <outline>
    <contour>
      <point x="139" y="700" type="line"/>
      <point x="26" y="602" type="line"/>
      <point x="26" y="432" type="line"/>
      <point x="77" y="357" type="line"/>
      <point x="257" y="299" type="line"/>
      <point x="277" y="277" type="line"/>
      <point x="277" y="129" type="line"/>
      <point x="263" y="118" type="line"/>
      <point x="205" y="118" type="line"/>
      <point x="191" y="129" type="line"/>
      <point x="191" y="254" type="line"/>
      <point x="31" y="254" type="line"/>
      <point x="31" y="89" type="line"/>
      <point x="144" y="0" type="line"/>
      <point x="337" y="0" type="line"/>
      <point x="450" y="99" type="line"/>
      <point x="450" y="318" type="line"/>
      <point x="396" y="392" type="line"/>
      <point x="209" y="451" type="line"/>
      <point x="194" y="469" type="line"/>
      <point x="194" y="573" type="line"/>
      <point x="208" y="584" type="line"/>
      <point x="266" y="584" type="line"/>
      <point x="280" y="573" type="line"/>
      <point x="280" y="483" type="line"/>
      <point x="430" y="483" type="line"/>
      <point x="430" y="621" type="line"/>
      <point x="329" y="700" type="line"/>
    </contour>
    <contour>
      <point x="213" y="378" type="line"/>
      <point x="261" y="378" type="line"/>
      <point x="261" y="800" type="line"/>
      <point x="213" y="800" type="line"/>
    </contour>
    <contour>
      <point x="210" y="-100" type="line"/>
      <point x="258" y="-100" type="line"/>
      <point x="258" y="349" type="line"/>
      <point x="210" y="349" type="line"/>
    </contour>
  </outline>
</glyph>
<glyph name="ampersand" format="1">
  <advance width="563"/>
  <unicode hex="0026"/>
  <outline>
    <contour>
      <point x="410" y="387" type="line"/>
      <point x="288" y="152" type="line"/>
      <point x="254" y="120" type="line"/>
      <point x="330" y="0" type="line"/>
      <point x="424" y="86" type="line"/>
      <point x="541" y="316" type="line"/>
    </contour>
    <contour>
      <point x="69" y="613" type="line"/>
      <point x="69" y="445" type="line"/>
      <point x="401" y="0" type="line"/>
      <point x="477" y="0" type="line"/>
      <point x="541" y="79" type="line"/>
      <point x="228" y="484" type="line"/>
      <point x="228" y="569" type="line"/>
      <point x="245" y="583" type="line"/>
      <point x="168" y="697" type="line"/>
    </contour>
    <contour>
      <point x="432" y="449" type="line"/>
      <point x="432" y="611" type="line"/>
      <point x="327" y="697" type="line"/>
      <point x="169" y="697" type="line"/>
      <point x="217" y="582" type="line"/>
      <point x="259" y="582" type="line"/>
      <point x="274" y="569" type="line"/>
      <point x="274" y="478" type="line"/>
      <point x="248" y="453" type="line"/>
      <point x="144" y="421" type="line"/>
      <point x="24" y="310" type="line"/>
      <point x="24" y="103" type="line"/>
      <point x="144" y="0" type="line"/>
      <point x="330" y="0" type="line"/>
      <point x="276" y="120" type="line"/>
      <point x="219" y="120" type="line"/>
      <point x="199" y="138" type="line"/>
      <point x="199" y="254" type="line"/>
    </contour>
  </outline>
</glyph>
<glyph name="quotesingle" format="1">
  <advance width="172"/>
  <unicode hex="0027"/>
  <outline>
    <contour>
      <point x="20" y="458" type="line"/>
      <point x="152" y="458" type="line"/>
      <point x="162" y="700" type="line"/>
      <point x="10" y="700" type="line"/>
    </contour>
  </outline>
</glyph>
<glyph name="parenleft" format="1">
  <advance width="239"/>
  <unicode hex="0028"/>
  <outline>
    <contour>
      <point x="231" y="700" type="line"/>
      <point x="149" y="700" type="line"/>
      <point x="30" y="597" type="line"/>
      <point x="30" y="-17" type="line"/>
      <point x="149" y="-120" type="line"/>
      <point x="231" y="-120" type="line"/>
      <point x="231" y="0" type="line"/>
      <point x="219" y="0" type="line"/>
      <point x="205" y="12" type="line"/>
      <point x="205" y="574" type="line"/>
      <point x="219" y="585" type="line"/>
      <point x="231" y="585" type="line"/>
    </contour>
  </outline>
</glyph>
<glyph name="asterisk" format="1">
  <advance width="455"/>
  <unicode hex="002A"/>
  <outline>
    <contour>
      <point x="178" y="495" type="line"/>
      <point x="154" y="287" type="line"/>
      <point x="301" y="287" type="line"/>
      <point x="277" y="495" type="line"/>
      <point x="301" y="703" type="line"/>
      <point x="154" y="703" type="line"/>
    </contour>
    <contour>
      <point x="252" y="452" type="line"/>
      <point x="444" y="535" type="line"/>
      <point x="371" y="663" type="line"/>
      <point x="203" y="538" type="line"/>
      <point x="11" y="455" type="line"/>
      <point x="84" y="327" type="line"/>
    </contour>
    <contour>
      <point x="203" y="452" type="line"/>
      <point x="370" y="328" type="line"/>
      <point x="445" y="455" type="line"/>
      <point x="252" y="538" type="line"/>
      <point x="85" y="662" type="line"/>
      <point x="10" y="535" type="line"/>
    </contour>
  </outline>
</glyph>
<glyph name="comma" format="1">
  <advance width="202"/>
  <unicode hex="002C"/>
  <outline>
    <contour>
      <point x="10" y="124" type="line"/>
      <point x="10" y="48" type="line"/>
      <point x="57" y="0" type="line"/>
      <point x="108" y="0" type="line"/>
      <point x="108" y="0" type="line"/>
      <point x="79" y="-44" type="line"/>
      <point x="11" y="-74" type="line"/>
      <point x="11" y="-125" type="line"/>
      <point x="138" y="-83" type="line"/>
      <point x="192" y="0" type="line"/>
      <point x="192" y="124" type="line"/>
      <point x="145" y="171" type="line"/>
      <point x="57" y="171" type="line"/>
    </contour>
  </outline>
</glyph>
<glyph name="hyphen" format="1">
  <advance width="286"/>
  <unicode hex="002D"/>
  <outline>
    <contour>
      <point x="8" y="251" type="line"/>
      <point x="278" y="251" type="line"/>
      <point x="278" y="382" type="line"/>
      <point x="8" y="382" type="line"/>
    </contour>
  </outline>
</glyph>
<glyph name="period" format="1">
  <advance width="202"/>
  <unicode hex="002E"/>
  <outline>
    <contour>
      <point x="10" y="135" type="line"/>
      <point x="10" y="36" type="line"/>
      <point x="46" y="0" type="line"/>
      <point x="155" y="0" type="line"/>
      <point x="192" y="36" type="line"/>
      <point x="192" y="135" type="line"/>
      <point x="156" y="171" type="line"/>
      <point x="46" y="171" type="line"/>
    </contour>
  </outline>
</glyph>
<glyph name="slash" format="1">
  <advance width="332"/>
  <unicode hex="002F"/>
  <outline>
    <contour>
      <point x="175" y="700" type="line"/>
      <point x="-25" y="-150" type="line"/>
      <point x="157" y="-150" type="line"/>
      <point x="357" y="700" type="line"/>
    </contour>
  </outline>
</glyph>
<glyph name="zero" format="1">
  <advance width="454"/>
  <unicode hex="0030"/>
  <outline>
    <contour>
      <point x="145" y="700" type="line"/>
      <point x="30" y="602" type="line"/>
      <point x="30" y="99" type="line"/>
      <point x="145" y="0" type="line"/>
      <point x="267" y="0" type="line"/>
      <point x="267" y="118" type="line"/>
      <point x="216" y="118" type="line"/>
      <point x="201" y="130" type="line"/>
      <point x="201" y="577" type="line"/>
      <point x="217" y="588" type="line"/>
      <point x="267" y="588" type="line"/>
      <point x="267" y="700" type="line"/>
    </contour>
    <contour>
      <point x="200" y="700" type="line"/>
      <point x="200" y="588" type="line"/>
      <point x="237" y="588" type="line"/>
      <point x="252" y="577" type="line"/>
      <point x="252" y="130" type="line"/>
      <point x="237" y="118" type="line"/>
      <point x="200" y="118" type="line"/>
      <point x="200" y="0" type="line"/>
      <point x="308" y="0" type="line"/>
      <point x="424" y="99" type="line"/>
      <point x="424" y="602" type="line"/>
      <point x="308" y="700" type="line"/>
    </contour>
  </outline>
</glyph>
<glyph name="one" format="1">
  <advance width="266"/>
  <unicode hex="0031"/>
  <outline>
    <contour>
      <point x="56" y="593" type="line"/>
      <point x="56" y="0" type="line"/>
      <point x="226" y="0" type="line"/>
      <point x="226" y="700" type="line"/>
      <point x="40" y="700" type="line"/>
      <point x="10" y="604" type="line"/>
      <point x="10" y="593" type="line"/>
    </contour>
  </outline>
</glyph>
<glyph name="two" format="1">
  <advance width="384"/>
  <unicode hex="0032"/>
  <outline>
    <contour>
      <point x="122" y="700" type="line"/>
      <point x="10" y="614" type="line"/>
      <point x="10" y="460" type="line"/>
      <point x="169" y="460" type="line"/>
      <point x="169" y="572" type="line"/>
      <point x="183" y="584" type="line"/>
      <point x="204" y="584" type="line"/>
      <point x="216" y="574" type="line"/>
      <point x="216" y="477" type="line"/>
      <point x="207" y="449" type="line"/>
      <point x="12" y="198" type="line"/>
      <point x="12" y="79" type="line"/>
      <point x="102" y="0" type="line"/>
      <point x="369" y="0" type="line"/>
      <point x="376" y="143" type="line"/>
      <point x="198" y="143" type="line"/>
      <point x="186" y="153" type="line"/>
      <point x="186" y="153" type="line"/>
      <point x="195" y="168" type="line"/>
      <point x="349" y="355" type="line"/>
      <point x="383" y="447" type="line"/>
      <point x="383" y="602" type="line"/>
      <point x="272" y="700" type="line"/>
    </contour>
  </outline>
</glyph>
<glyph name="three" format="1">
  <advance width="453"/>
  <unicode hex="0033"/>
  <outline>
    <contour>
      <point x="145" y="424" type="line"/>
      <point x="145" y="301" type="line"/>
      <point x="229" y="301" type="line"/>
      <point x="253" y="280" type="line"/>
      <point x="253" y="138" type="line"/>
      <point x="233" y="120" type="line"/>
      <point x="184" y="120" type="line"/>
      <point x="149" y="0" type="line"/>
      <point x="308" y="0" type="line"/>
      <point x="428" y="103" type="line"/>
      <point x="428" y="322" type="line"/>
      <point x="308" y="424" type="line"/>
    </contour>
    <contour>
      <point x="26" y="242" type="line"/>
      <point x="26" y="99" type="line"/>
      <point x="149" y="0" type="line"/>
      <point x="208" y="120" type="line"/>
      <point x="188" y="137" type="line"/>
      <point x="188" y="242" type="line"/>
    </contour>
    <contour>
      <point x="31" y="611" type="line"/>
      <point x="31" y="472" type="line"/>
      <point x="190" y="472" type="line"/>
      <point x="190" y="571" type="line"/>
      <point x="210" y="586" type="line"/>
      <point x="140" y="700" type="line"/>
    </contour>
    <contour>
      <point x="141" y="700" type="line"/>
      <point x="189" y="585" type="line"/>
      <point x="228" y="585" type="line"/>
      <point x="246" y="568" type="line"/>
      <point x="246" y="457" type="line"/>
      <point x="229" y="441" type="line"/>
      <point x="145" y="441" type="line"/>
      <point x="145" y="367" type="line"/>
      <point x="325" y="367" type="line"/>
      <point x="421" y="450" type="line"/>
      <point x="421" y="597" type="line"/>
      <point x="301" y="700" type="line"/>
    </contour>
  </outline>
</glyph>
<glyph name="four" format="1">
  <advance width="421"/>
  <unicode hex="0034"/>
  <outline>
    <contour>
      <point x="153" y="700" type="line"/>
      <point x="10" y="316" type="line"/>
      <point x="10" y="257" type="line"/>
      <point x="68" y="156" type="line"/>
      <point x="420" y="156" type="line"/>
      <point x="426" y="274" type="line"/>
      <point x="166" y="274" type="line"/>
      <point x="162" y="279" type="line"/>
      <point x="162" y="291" type="line"/>
      <point x="195" y="477" type="line"/>
      <point x="208" y="545" type="line"/>
      <point x="252" y="554" type="line"/>
      <point x="289" y="700" type="line"/>
    </contour>
    <component base="I" xOffset="173"/>
  </outline>
</glyph>
<glyph name="five" format="1">
  <advance width="420"/>
  <unicode hex="0035"/>
  <outline>
    <contour>
      <point x="33" y="700" type="line"/>
      <point x="33" y="394" type="line"/>
      <point x="101" y="319" type="line"/>
      <point x="201" y="321" type="line"/>
      <point x="221" y="299" type="line"/>
      <point x="221" y="130" type="line"/>
      <point x="205" y="118" type="line"/>
      <point x="194" y="118" type="line"/>
      <point x="183" y="130" type="line"/>
      <point x="183" y="258" type="line"/>
      <point x="26" y="258" type="line"/>
      <point x="26" y="84" type="line"/>
      <point x="129" y="0" type="line"/>
      <point x="281" y="0" type="line"/>
      <point x="394" y="99" type="line"/>
      <point x="394" y="380" type="line"/>
      <point x="310" y="464" type="line"/>
      <point x="201" y="464" type="line"/>
      <point x="201" y="564" type="line"/>
      <point x="367" y="564" type="line"/>
      <point x="381" y="700" type="line"/>
    </contour>
  </outline>
</glyph>
<glyph name="six" format="1">
  <advance width="463"/>
  <unicode hex="0036"/>
  <outline>
    <contour>
      <point x="150" y="700" type="line"/>
      <point x="30" y="597" type="line"/>
      <point x="30" y="99" type="line"/>
      <point x="147" y="0" type="line"/>
      <point x="317" y="0" type="line"/>
      <point x="437" y="103" type="line"/>
      <point x="437" y="326" type="line"/>
      <point x="317" y="428" type="line"/>
      <point x="232" y="428" type="line"/>
      <point x="199" y="401" type="line"/>
      <point x="199" y="287" type="line"/>
      <point x="221" y="305" type="line"/>
      <point x="245" y="305" type="line"/>
      <point x="262" y="288" type="line"/>
      <point x="262" y="136" type="line"/>
      <point x="247" y="120" type="line"/>
      <point x="220" y="120" type="line"/>
      <point x="204" y="135" type="line"/>
      <point x="204" y="569" type="line"/>
      <point x="220" y="585" type="line"/>
      <point x="253" y="585" type="line"/>
      <point x="270" y="570" type="line"/>
      <point x="270" y="472" type="line"/>
      <point x="429" y="472" type="line"/>
      <point x="429" y="616" type="line"/>
      <point x="329" y="700" type="line"/>
    </contour>
  </outline>
</glyph>
<glyph name="seven" format="1">
  <advance width="402"/>
  <unicode hex="0037"/>
  <outline>
    <contour>
      <point x="211" y="700" type="line"/>
      <point x="171" y="518" type="line"/>
      <point x="77" y="104" type="line"/>
      <point x="68" y="0" type="line"/>
      <point x="231" y="0" type="line"/>
      <point x="287" y="264" type="line"/>
      <point x="376" y="641" type="line"/>
      <point x="373" y="700" type="line"/>
    </contour>
    <contour>
      <point x="36" y="700" type="line"/>
      <point x="26" y="585" type="line"/>
      <point x="145" y="585" type="line"/>
      <point x="221" y="585" type="line"/>
      <point x="221" y="700" type="line"/>
    </contour>
  </outline>
</glyph>
<glyph name="eight" format="1">
  <advance width="486"/>
  <unicode hex="0038"/>
  <outline>
    <contour>
      <point x="178" y="428" type="line"/>
      <point x="178" y="305" type="line"/>
      <point x="262" y="305" type="line"/>
      <point x="286" y="284" type="line"/>
      <point x="286" y="138" type="line"/>
      <point x="266" y="120" type="line"/>
      <point x="217" y="120" type="line"/>
      <point x="176" y="0" type="line"/>
      <point x="341" y="0" type="line"/>
      <point x="461" y="103" type="line"/>
      <point x="461" y="326" type="line"/>
      <point x="341" y="428" type="line"/>
    </contour>
    <contour>
      <point x="145" y="428" type="line"/>
      <point x="25" y="326" type="line"/>
      <point x="25" y="103" type="line"/>
      <point x="145" y="0" type="line"/>
      <point x="310" y="0" type="line"/>
      <point x="269" y="120" type="line"/>
      <point x="220" y="120" type="line"/>
      <point x="200" y="138" type="line"/>
      <point x="200" y="284" type="line"/>
      <point x="224" y="305" type="line"/>
      <point x="308" y="305" type="line"/>
      <point x="308" y="428" type="line"/>
    </contour>
    <contour>
      <point x="158" y="700" type="line"/>
      <point x="38" y="597" type="line"/>
      <point x="38" y="446" type="line"/>
      <point x="114" y="383" type="line"/>
      <point x="314" y="383" type="line"/>
      <point x="314" y="438" type="line"/>
      <point x="230" y="438" type="line"/>
      <point x="213" y="453" type="line"/>
      <point x="213" y="568" type="line"/>
      <point x="231" y="585" type="line"/>
      <point x="270" y="585" type="line"/>
      <point x="328" y="700" type="line"/>
    </contour>
    <contour>
      <point x="158" y="700" type="line"/>
      <point x="216" y="585" type="line"/>
      <point x="255" y="585" type="line"/>
      <point x="273" y="568" type="line"/>
      <point x="273" y="453" type="line"/>
      <point x="256" y="438" type="line"/>
      <point x="172" y="438" type="line"/>
      <point x="172" y="383" type="line"/>
      <point x="372" y="383" type="line"/>
      <point x="448" y="446" type="line"/>
      <point x="448" y="597" type="line"/>
      <point x="328" y="700" type="line"/>
    </contour>
  </outline>
</glyph>
<glyph name="nine" format="1">
  <advance width="458"/>
  <unicode hex="0039"/>
  <outline>
    <contour>
      <point x="146" y="700" type="line"/>
      <point x="26" y="597" type="line"/>
      <point x="26" y="374" type="line"/>
      <point x="146" y="272" type="line"/>
      <point x="226" y="272" type="line"/>
      <point x="259" y="299" type="line"/>
      <point x="259" y="410" type="line"/>
      <point x="240" y="395" type="line"/>
      <point x="215" y="395" type="line"/>
      <point x="201" y="409" type="line"/>
      <point x="201" y="568" type="line"/>
      <point x="213" y="580" type="line"/>
      <point x="241" y="580" type="line"/>
      <point x="254" y="569" type="line"/>
      <point x="254" y="127" type="line"/>
      <point x="241" y="115" type="line"/>
      <point x="203" y="115" type="line"/>
      <point x="189" y="126" type="line"/>
      <point x="189" y="228" type="line"/>
      <point x="30" y="228" type="line"/>
      <point x="30" y="84" type="line"/>
      <point x="130" y="0" type="line"/>
      <point x="308" y="0" type="line"/>
      <point x="428" y="103" type="line"/>
      <point x="428" y="601" type="line"/>
      <point x="311" y="700" type="line"/>
    </contour>
  </outline>
</glyph>
<glyph name="question" format="1">
  <advance width="390"/>
  <unicode hex="003F"/>
  <outline>
    <contour>
      <point x="117" y="700" type="line"/>
      <point x="5" y="614" type="line"/>
      <point x="5" y="500" type="line"/>
      <point x="164" y="500" type="line"/>
      <point x="164" y="572" type="line"/>
      <point x="178" y="584" type="line"/>
      <point x="199" y="584" type="line"/>
      <point x="211" y="574" type="line"/>
      <point x="211" y="517" type="line"/>
      <point x="202" y="489" type="line"/>
      <point x="113" y="395" type="line"/>
      <point x="97" y="347" type="line"/>
      <point x="107" y="226" type="line"/>
      <point x="241" y="226" type="line"/>
      <point x="249" y="314" type="line"/>
      <point x="257" y="330" type="line"/>
      <point x="344" y="395" type="line"/>
      <point x="378" y="487" type="line"/>
      <point x="378" y="602" type="line"/>
      <point x="267" y="700" type="line"/>
    </contour>
    <component base="period" xOffset="75"/>
  </outline>
</glyph>
<glyph name="at" format="1">
  <advance width="722"/>
  <unicode hex="0040"/>
  <outline>
    <contour>
      <point x="572" y="700" type="line"/>
      <point x="149" y="700" type="line"/>
      <point x="30" y="597" type="line"/>
      <point x="30" y="103" type="line"/>
      <point x="149" y="0" type="line"/>
      <point x="572" y="0" type="line"/>
      <point x="692" y="103" type="line"/>
      <point x="692" y="597" type="line"/>
    </contour>
    <contour>
      <point x="517" y="132" type="line"/>
      <point x="503" y="120" type="line"/>
      <point x="219" y="120" type="line"/>
      <point x="205" y="132" type="line"/>
      <point x="205" y="574" type="line"/>
      <point x="219" y="585" type="line"/>
      <point x="503" y="585" type="line"/>
      <point x="517" y="574" type="line"/>
    </contour>
    <component base="a" xOffset="189" yOffset="144" xScale="0.837" yScale="0.837"/>
  </outline>
</glyph>
<glyph name="A" format="1">
  <advance width="436"/>
  <unicode hex="0041"/>
  <outline>
    <contour>
      <point x="134" y="700" type="line"/>
      <point x="156" y="624" type="line"/>
      <point x="224" y="564" type="line"/>
      <point x="233" y="380" type="line"/>
      <point x="259" y="0" type="line"/>
      <point x="432" y="0" type="line"/>
      <point x="341" y="700" type="line"/>
    </contour>
    <contour>
      <point x="124" y="138" type="line"/>
      <point x="310" y="138" type="line"/>
      <point x="310" y="307" type="line"/>
      <point x="225" y="243" type="line"/>
      <point x="209" y="243" type="line"/>
      <point x="124" y="307" type="line"/>
    </contour>
    <contour>
      <point x="95" y="700" type="line"/>
      <point x="4" y="0" type="line"/>
      <point x="176" y="0" type="line"/>
      <point x="202" y="380" type="line"/>
      <point x="210" y="565" type="line"/>
      <point x="276" y="624" type="line"/>
      <point x="300" y="700" type="line"/>
    </contour>
    <contour>
      <point x="432" y="0" type="move" name="ogonek"/>
    </contour>
    <contour>
      <point x="218" y="700" type="move" name="top"/>
    </contour>
  </outline>
</glyph>
<glyph name="B" format="1">
  <advance width="471"/>
  <unicode hex="0042"/>
  <outline>
    <contour>
      <point x="183" y="700" type="line"/>
      <point x="183" y="585" type="line"/>
      <point x="247" y="585" type="line"/>
      <point x="262" y="572" type="line"/>
      <point x="262" y="445" type="line"/>
      <point x="247" y="432" type="line"/>
      <point x="183" y="432" type="line"/>
      <point x="183" y="345" type="line"/>
      <point x="317" y="345" type="line"/>
      <point x="437" y="448" type="line"/>
      <point x="437" y="597" type="line"/>
      <point x="317" y="700" type="line"/>
    </contour>
    <contour>
      <point x="178" y="431" type="line"/>
      <point x="178" y="317" type="line"/>
      <point x="256" y="317" type="line"/>
      <point x="271" y="304" type="line"/>
      <point x="271" y="133" type="line"/>
      <point x="256" y="120" type="line"/>
      <point x="178" y="120" type="line"/>
      <point x="178" y="0" type="line"/>
      <point x="326" y="0" type="line"/>
      <point x="446" y="103" type="line"/>
      <point x="446" y="328" type="line"/>
      <point x="326" y="431" type="line"/>
    </contour>
    <component base="I"/>
  </outline>
</glyph>
<glyph name="C" format="1">
  <advance width="444"/>
  <unicode hex="0043"/>
  <outline>
    <contour>
      <point x="145" y="700" type="line"/>
      <point x="30" y="602" type="line"/>
      <point x="30" y="99" type="line"/>
      <point x="145" y="0" type="line"/>
      <point x="310" y="0" type="line"/>
      <point x="418" y="90" type="line"/>
      <point x="418" y="259" type="line"/>
      <point x="257" y="259" type="line"/>
      <point x="257" y="129" type="line"/>
      <point x="243" y="118" type="line"/>
      <point x="214" y="118" type="line"/>
      <point x="201" y="129" type="line"/>
      <point x="201" y="573" type="line"/>
      <point x="215" y="584" type="line"/>
      <point x="243" y="584" type="line"/>
      <point x="256" y="573" type="line"/>
      <point x="256" y="449" type="line"/>
      <point x="418" y="449" type="line"/>
      <point x="418" y="610" type="line"/>
      <point x="309" y="700" type="line"/>
    </contour>
    <contour>
      <point x="230" y="700" type="move" name="top"/>
    </contour>
    <contour>
      <point x="222" y="0" type="move" name="bottom"/>
    </contour>
  </outline>
</glyph>
<glyph name="D" format="1">
  <advance width="473"/>
  <unicode hex="0044"/>
  <outline>
    <contour>
      <point x="179" y="700" type="line"/>
      <point x="179" y="585" type="line"/>
      <point x="253" y="585" type="line"/>
      <point x="268" y="572" type="line"/>
      <point x="268" y="133" type="line"/>
      <point x="253" y="120" type="line"/>
      <point x="179" y="120" type="line"/>
      <point x="179" y="0" type="line"/>
      <point x="323" y="0" type="line"/>
      <point x="443" y="103" type="line"/>
      <point x="443" y="597" type="line"/>
      <point x="323" y="700" type="line"/>
    </contour>
    <component base="I"/>
    <contour>
      <point x="237" y="350" type="move" name="center"/>
    </contour>
    <contour>
      <point x="237" y="700" type="move" name="top"/>
    </contour>
  </outline>
</glyph>
<glyph name="E" format="1">
  <advance width="349"/>
  <unicode hex="0045"/>
  <outline>
    <contour>
      <point x="134" y="324" type="line"/>
      <point x="299" y="317" type="line"/>
      <point x="299" y="427" type="line"/>
      <point x="134" y="421" type="line"/>
    </contour>
    <contour>
      <point x="134" y="581" type="line"/>
      <point x="200" y="581" type="line"/>
      <point x="319" y="571" type="line"/>
      <point x="309" y="700" type="line"/>
      <point x="134" y="700" type="line"/>
    </contour>
    <contour>
      <point x="134" y="0" type="line"/>
      <point x="319" y="0" type="line"/>
      <point x="329" y="129" type="line"/>
      <point x="205" y="119" type="line"/>
      <point x="134" y="119" type="line"/>
    </contour>
    <component base="I"/>
    <contour>
      <point x="305" y="10" type="move" name="ogonek"/>
    </contour>
    <contour>
      <point x="170" y="0" type="move" name="bottom"/>
    </contour>
    <contour>
      <point x="185" y="700" type="move" name="top"/>
    </contour>
  </outline>
</glyph>
<glyph name="F" format="1">
  <advance width="329"/>
  <unicode hex="0046"/>
  <outline>
    <contour>
      <point x="124" y="298" type="line"/>
      <point x="289" y="291" type="line"/>
      <point x="289" y="401" type="line"/>
      <point x="124" y="395" type="line"/>
    </contour>
    <contour>
      <point x="124" y="585" type="line"/>
      <point x="200" y="585" type="line"/>
      <point x="309" y="585" type="line"/>
      <point x="299" y="700" type="line"/>
      <point x="124" y="700" type="line"/>
    </contour>
    <component base="I"/>
  </outline>
</glyph>
<glyph name="G" format="1">
  <advance width="463"/>
  <unicode hex="0047"/>
  <outline>
    <contour>
      <point x="415" y="395" type="line"/>
      <point x="226" y="395" type="line"/>
      <point x="226" y="361" type="line"/>
      <point x="269" y="305" type="line"/>
      <point x="269" y="142" type="line"/>
      <point x="245" y="120" type="line"/>
      <point x="229" y="120" type="line"/>
      <point x="205" y="143" type="line"/>
      <point x="205" y="562" type="line"/>
      <point x="229" y="585" type="line"/>
      <point x="249" y="585" type="line"/>
      <point x="270" y="571" type="line"/>
      <point x="270" y="454" type="line"/>
      <point x="433" y="454" type="line"/>
      <point x="435" y="622" type="line"/>
      <point x="317" y="700" type="line"/>
      <point x="149" y="700" type="line"/>
      <point x="30" y="597" type="line"/>
      <point x="30" y="103" type="line"/>
      <point x="149" y="0" type="line"/>
      <point x="327" y="0" type="line"/>
      <point x="437" y="94" type="line"/>
      <point x="437" y="363" type="line"/>
    </contour>
  </outline>
</glyph>
<glyph name="H" format="1">
  <advance width="478"/>
  <unicode hex="0048"/>
  <outline>
    <contour>
      <point x="124" y="312" type="line"/>
      <point x="309" y="312" type="line"/>
      <point x="309" y="427" type="line"/>
      <point x="124" y="427" type="line"/>
    </contour>
    <component base="I"/>
    <component base="I" xOffset="227"/>
    <contour>
      <point x="239" y="700" type="move" name="top"/>
    </contour>
    <contour>
      <point x="239" y="350" type="move" name="center"/>
    </contour>
  </outline>
</glyph>
<glyph name="I" format="1">
  <advance width="251"/>
  <unicode hex="0049"/>
  <outline>
    <contour>
      <point x="40" y="700" type="line"/>
      <point x="40" y="0" type="line"/>
      <point x="211" y="0" type="line"/>
      <point x="211" y="700" type="line"/>
    </contour>
    <contour>
      <point x="226" y="10" type="move" name="ogonek"/>
    </contour>
    <contour>
      <point x="126" y="700" type="move" name="top"/>
    </contour>
  </outline>
</glyph>
<glyph name="J" format="1">
  <advance width="425"/>
  <unicode hex="004A"/>
  <outline>
    <contour>
      <point x="221" y="700" type="line"/>
      <point x="221" y="131" type="line"/>
      <point x="206" y="118" type="line"/>
      <point x="183" y="118" type="line"/>
      <point x="168" y="131" type="line"/>
      <point x="168" y="239" type="line"/>
      <point x="5" y="239" type="line"/>
      <point x="5" y="89" type="line"/>
      <point x="113" y="0" type="line"/>
      <point x="277" y="0" type="line"/>
      <point x="392" y="99" type="line"/>
      <point x="392" y="700" type="line"/>
    </contour>
    <contour>
      <point x="215" y="700" type="move" name="top"/>
    </contour>
  </outline>
</glyph>
<glyph name="K" format="1">
  <advance width="472"/>
  <unicode hex="004B"/>
  <outline>
    <contour>
      <point x="275" y="700" type="line"/>
      <point x="226" y="423" type="line"/>
      <point x="206" y="403" type="line"/>
      <point x="206" y="211" type="line"/>
      <point x="365" y="359" type="line"/>
      <point x="458" y="700" type="line"/>
    </contour>
    <contour>
      <point x="231" y="297" type="line"/>
      <point x="282" y="0" type="line"/>
      <point x="469" y="0" type="line"/>
      <point x="366" y="397" type="line"/>
    </contour>
    <contour>
      <point x="40" y="697" type="line"/>
      <point x="40" y="0" type="line"/>
      <point x="211" y="0" type="line"/>
      <point x="211" y="697" type="line"/>
    </contour>
  </outline>
</glyph>
<glyph name="L" format="1">
  <advance width="333"/>
  <unicode hex="004C"/>
  <outline>
    <contour>
      <point x="100" y="119" type="line"/>
      <point x="100" y="0" type="line"/>
      <point x="314" y="0" type="line"/>
      <point x="328" y="139" type="line"/>
    </contour>
    <component base="I"/>
    <contour>
      <point x="172" y="700" type="move" name="top"/>
    </contour>
    <contour>
      <point x="202" y="0" type="move" name="bottom"/>
    </contour>
    <contour>
      <point x="323" y="700" type="move" name="topright"/>
    </contour>
  </outline>
</glyph>
<glyph name="M" format="1">
  <advance width="669"/>
  <unicode hex="004D"/>
  <outline>
    <contour>
      <point x="113" y="700" type="line"/>
      <point x="160" y="624" type="line"/>
      <point x="228" y="564" type="line"/>
      <point x="247" y="377" type="line"/>
      <point x="278" y="0" type="line"/>
      <point x="351" y="0" type="line"/>
      <point x="310" y="700" type="line"/>
    </contour>
    <contour>
      <point x="38" y="700" type="line"/>
      <point x="38" y="0" type="line"/>
      <point x="208" y="0" type="line"/>
      <point x="208" y="377" type="line"/>
      <point x="209" y="565" type="line"/>
      <point x="272" y="624" type="line"/>
      <point x="291" y="700" type="line"/>
    </contour>
    <contour>
      <point x="377" y="700" type="line"/>
      <point x="394" y="624" type="line"/>
      <point x="459" y="564" type="line"/>
      <point x="461" y="377" type="line"/>
      <point x="461" y="0" type="line"/>
      <point x="631" y="0" type="line"/>
      <point x="631" y="700" type="line"/>
    </contour>
    <contour>
      <point x="359" y="700" type="line"/>
      <point x="319" y="0" type="line"/>
      <point x="391" y="0" type="line"/>
      <point x="422" y="377" type="line"/>
      <point x="440" y="565" type="line"/>
      <point x="506" y="624" type="line"/>
      <point x="623" y="700" type="line"/>
    </contour>
  </outline>
</glyph>
<glyph name="N" format="1">
  <advance width="511"/>
  <unicode hex="004E"/>
  <outline>
    <contour>
      <point x="300" y="700" type="line"/>
      <point x="300" y="466" type="line"/>
      <point x="306" y="363" type="line"/>
      <point x="302" y="349" type="line"/>
      <point x="294" y="359" type="line"/>
      <point x="270" y="467" type="line"/>
      <point x="211" y="700" type="line"/>
      <point x="40" y="700" type="line"/>
      <point x="40" y="0" type="line"/>
      <point x="211" y="0" type="line"/>
      <point x="211" y="290" type="line"/>
      <point x="201" y="419" type="line"/>
      <point x="203" y="437" type="line"/>
      <point x="215" y="423" type="line"/>
      <point x="239" y="329" type="line"/>
      <point x="300" y="75" type="line"/>
      <point x="300" y="0" type="line"/>
      <point x="471" y="0" type="line"/>
      <point x="471" y="700" type="line"/>
    </contour>
    <contour>
      <point x="256" y="700" type="move" name="top"/>
    </contour>
    <contour>
      <point x="256" y="0" type="move" name="bottom"/>
    </contour>
  </outline>
</glyph>
<glyph name="O" format="1">
  <advance width="472"/>
  <unicode hex="004F"/>
  <outline>
    <contour>
      <point x="322" y="700" type="line"/>
      <point x="149" y="700" type="line"/>
      <point x="30" y="597" type="line"/>
      <point x="30" y="103" type="line"/>
      <point x="149" y="0" type="line"/>
      <point x="322" y="0" type="line"/>
      <point x="442" y="103" type="line"/>
      <point x="442" y="597" type="line"/>
    </contour>
    <contour>
      <point x="267" y="132" type="line"/>
      <point x="253" y="120" type="line"/>
      <point x="219" y="120" type="line"/>
      <point x="205" y="132" type="line"/>
      <point x="205" y="574" type="line"/>
      <point x="219" y="585" type="line"/>
      <point x="253" y="585" type="line"/>
      <point x="267" y="574" type="line"/>
    </contour>
    <contour>
      <point x="236" y="700" type="move" name="top"/>
    </contour>
  </outline>
</glyph>
<glyph name="P" format="1">
  <advance width="450"/>
  <unicode hex="0050"/>
  <outline>
    <contour>
      <point x="110" y="700" type="line"/>
      <point x="110" y="590" type="line"/>
      <point x="244" y="590" type="line"/>
      <point x="259" y="577" type="line"/>
      <point x="259" y="397" type="line"/>
      <point x="241" y="371" type="line"/>
      <point x="127" y="301" type="line"/>
      <point x="127" y="145" type="line"/>
      <point x="346" y="274" type="line"/>
      <point x="434" y="377" type="line"/>
      <point x="434" y="597" type="line"/>
      <point x="314" y="700" type="line"/>
    </contour>
    <component base="I"/>
  </outline>
</glyph>
<glyph name="Q" format="1">
  <advance width="491"/>
  <unicode hex="0051"/>
  <outline>
    <contour>
      <point x="145" y="697" type="line"/>
      <point x="30" y="599" type="line"/>
      <point x="30" y="99" type="line"/>
      <point x="145" y="0" type="line"/>
      <point x="291" y="0" type="line"/>
      <point x="437" y="145" type="line"/>
      <point x="437" y="599" type="line"/>
      <point x="321" y="697" type="line"/>
    </contour>
    <contour>
      <point x="222" y="304" type="line"/>
      <point x="136" y="242" type="line"/>
      <point x="169" y="157" type="line"/>
      <point x="211" y="195" type="line"/>
      <point x="217" y="195" type="line"/>
      <point x="226" y="190" type="line"/>
      <point x="232" y="185" type="line"/>
      <point x="245" y="66" type="line"/>
      <point x="343" y="-66" type="line"/>
      <point x="434" y="-66" type="line"/>
      <point x="461" y="91" type="line"/>
      <point x="416" y="91" type="line"/>
      <point x="399" y="112" type="line"/>
      <point x="387" y="238" type="line"/>
      <point x="276" y="304" type="line"/>
    </contour>
    <contour>
      <point x="266" y="573" type="line"/>
      <point x="266" y="143" type="line"/>
      <point x="239" y="118" type="line"/>
      <point x="214" y="118" type="line"/>
      <point x="201" y="128" type="line"/>
      <point x="201" y="573" type="line"/>
      <point x="215" y="585" type="line"/>
      <point x="252" y="585" type="line"/>
    </contour>
  </outline>
</glyph>
<glyph name="R" format="1">
  <advance width="466"/>
  <unicode hex="0052"/>
  <outline>
    <contour>
      <point x="127" y="700" type="line"/>
      <point x="127" y="588" type="line"/>
      <point x="245" y="588" type="line"/>
      <point x="260" y="573" type="line"/>
      <point x="260" y="398" type="line"/>
      <point x="251" y="370" type="line"/>
      <point x="177" y="306" type="line"/>
      <point x="178" y="167" type="line"/>
      <point x="245" y="216" type="line"/>
      <point x="379" y="315" type="line"/>
      <point x="406" y="349" type="line"/>
      <point x="431" y="413" type="line"/>
      <point x="431" y="602" type="line"/>
      <point x="316" y="700" type="line"/>
    </contour>
    <contour>
      <point x="245" y="216" type="line"/>
      <point x="274" y="0" type="line"/>
      <point x="453" y="0" type="line"/>
      <point x="379" y="315" type="line"/>
    </contour>
    <component base="I"/>
    <contour>
      <point x="233" y="700" type="move" name="top"/>
    </contour>
    <contour>
      <point x="233" y="0" type="move" name="bottom"/>
    </contour>
  </outline>
</glyph>
<glyph name="S" format="1">
  <advance width="437"/>
  <unicode hex="0053"/>
  <outline>
    <contour>
      <point x="136" y="700" type="line"/>
      <point x="23" y="604" type="line"/>
      <point x="23" y="432" type="line"/>
      <point x="74" y="357" type="line"/>
      <point x="217" y="299" type="line"/>
      <point x="237" y="277" type="line"/>
      <point x="237" y="131" type="line"/>
      <point x="222" y="118" type="line"/>
      <point x="198" y="118" type="line"/>
      <point x="183" y="131" type="line"/>
      <point x="183" y="254" type="line"/>
      <point x="14" y="254" type="line"/>
      <point x="14" y="99" type="line"/>
      <point x="127" y="0" type="line"/>
      <point x="294" y="0" type="line"/>
      <point x="407" y="99" type="line"/>
      <point x="407" y="323" type="line"/>
      <point x="353" y="397" type="line"/>
      <point x="208" y="451" type="line"/>
      <point x="193" y="469" type="line"/>
      <point x="193" y="571" type="line"/>
      <point x="208" y="584" type="line"/>
      <point x="229" y="584" type="line"/>
      <point x="244" y="571" type="line"/>
      <point x="244" y="483" type="line"/>
      <point x="411" y="483" type="line"/>
      <point x="411" y="604" type="line"/>
      <point x="305" y="700" type="line"/>
    </contour>
    <contour>
      <point x="216" y="700" type="move" name="top"/>
    </contour>
    <contour>
      <point x="209" y="0" type="move" name="bottom"/>
    </contour>
  </outline>
</glyph>
<glyph name="T" format="1">
  <advance width="401"/>
  <unicode hex="0054"/>
  <outline>
    <contour>
      <point x="22" y="700" type="line"/>
      <point x="5" y="562" type="line"/>
      <point x="200" y="574" type="line"/>
      <point x="396" y="562" type="line"/>
      <point x="378" y="700" type="line"/>
    </contour>
    <component base="I" xOffset="75"/>
  </outline>
</glyph>
<glyph name="U" format="1">
  <advance width="461"/>
  <unicode hex="0055"/>
  <outline>
    <contour>
      <point x="255" y="700" type="line"/>
      <point x="254" y="132" type="line"/>
      <point x="240" y="118" type="line"/>
      <point x="220" y="118" type="line"/>
      <point x="205" y="132" type="line"/>
      <point x="205" y="700" type="line"/>
      <point x="34" y="700" type="line"/>
      <point x="34" y="99" type="line"/>
      <point x="148" y="0" type="line"/>
      <point x="310" y="0" type="line"/>
      <point x="426" y="99" type="line"/>
      <point x="427" y="700" type="line"/>
    </contour>
    <contour>
      <point x="231" y="700" type="move" name="top"/>
    </contour>
    <contour>
      <point x="415" y="10" type="move" name="ogonek"/>
    </contour>
  </outline>
</glyph>
<glyph name="V" format="1">
  <advance width="416"/>
  <unicode hex="0056"/>
  <outline>
    <contour>
      <point x="422" y="700" type="line"/>
      <point x="249" y="700" type="line"/>
      <point x="223" y="320" type="line"/>
      <point x="214" y="136" type="line"/>
      <point x="146" y="76" type="line"/>
      <point x="124" y="0" type="line"/>
      <point x="331" y="0" type="line"/>
    </contour>
    <contour>
      <point x="266" y="76" type="line"/>
      <point x="200" y="135" type="line"/>
      <point x="192" y="320" type="line"/>
      <point x="166" y="700" type="line"/>
      <point x="-6" y="700" type="line"/>
      <point x="84" y="0" type="line"/>
      <point x="290" y="0" type="line"/>
    </contour>
  </outline>
</glyph>
<glyph name="W" format="1">
  <advance width="674"/>
  <unicode hex="0057"/>
  <outline>
    <contour>
      <point x="353" y="700" type="line"/>
      <point x="280" y="700" type="line"/>
      <point x="234" y="320" type="line"/>
      <point x="220" y="136" type="line"/>
      <point x="152" y="76" type="line"/>
      <point x="115" y="0" type="line"/>
      <point x="312" y="0" type="line"/>
    </contour>
    <contour>
      <point x="272" y="76" type="line"/>
      <point x="209" y="135" type="line"/>
      <point x="206" y="320" type="line"/>
      <point x="190" y="700" type="line"/>
      <point x="0" y="700" type="line"/>
      <point x="80" y="0" type="line"/>
      <point x="301" y="0" type="line"/>
    </contour>
    <contour>
      <point x="674" y="700" type="line"/>
      <point x="483" y="700" type="line"/>
      <point x="467" y="320" type="line"/>
      <point x="463" y="136" type="line"/>
      <point x="398" y="76" type="line"/>
      <point x="371" y="0" type="line"/>
      <point x="593" y="0" type="line"/>
    </contour>
    <contour>
      <point x="518" y="76" type="line"/>
      <point x="452" y="135" type="line"/>
      <point x="439" y="320" type="line"/>
      <point x="393" y="700" type="line"/>
      <point x="321" y="700" type="line"/>
      <point x="361" y="0" type="line"/>
      <point x="557" y="0" type="line"/>
    </contour>
    <contour>
      <point x="337" y="700" type="move" name="top"/>
    </contour>
  </outline>
</glyph>
<glyph name="X" format="1">
  <advance width="460"/>
  <unicode hex="0058"/>
  <outline>
    <contour>
      <point x="434" y="700" type="line"/>
      <point x="264" y="700" type="line"/>
      <point x="245" y="533" type="line"/>
      <point x="236" y="449" type="line"/>
      <point x="168" y="369" type="line"/>
      <point x="156" y="313" type="line"/>
      <point x="301" y="244" type="line"/>
    </contour>
    <contour>
      <point x="288" y="369" type="line"/>
      <point x="222" y="448" type="line"/>
      <point x="214" y="533" type="line"/>
      <point x="195" y="700" type="line"/>
      <point x="26" y="700" type="line"/>
      <point x="149" y="263" type="line"/>
      <point x="302" y="313" type="line"/>
    </contour>
    <contour>
      <point x="156" y="370" type="line"/>
      <point x="168" y="324" type="line"/>
      <point x="236" y="254" type="line"/>
      <point x="245" y="180" type="line"/>
      <point x="264" y="0" type="line"/>
      <point x="434" y="0" type="line"/>
      <point x="321" y="469" type="line"/>
    </contour>
    <contour>
      <point x="129" y="450" type="line"/>
      <point x="26" y="0" type="line"/>
      <point x="195" y="0" type="line"/>
      <point x="214" y="180" type="line"/>
      <point x="222" y="255" type="line"/>
      <point x="288" y="324" type="line"/>
      <point x="302" y="370" type="line"/>
    </contour>
  </outline>
</glyph>
<glyph name="Y" format="1">
  <advance width="424"/>
  <unicode hex="0059"/>
  <outline>
    <contour>
      <point x="428" y="700" type="line"/>
      <point x="248" y="700" type="line"/>
      <point x="227" y="485" type="line"/>
      <point x="219" y="372" type="line"/>
      <point x="153" y="308" type="line"/>
      <point x="128" y="260" type="line"/>
      <point x="286" y="116" type="line"/>
    </contour>
    <contour>
      <point x="270" y="308" type="line"/>
      <point x="204" y="372" type="line"/>
      <point x="196" y="485" type="line"/>
      <point x="176" y="700" type="line"/>
      <point x="-4" y="700" type="line"/>
      <point x="138" y="116" type="line"/>
      <point x="294" y="260" type="line"/>
    </contour>
    <contour>
      <point x="125" y="292" type="line"/>
      <point x="125" y="0" type="line"/>
      <point x="296" y="0" type="line"/>
      <point x="296" y="292" type="line"/>
    </contour>
    <contour>
      <point x="212" y="700" type="move" name="top"/>
    </contour>
  </outline>
</glyph>
<glyph name="Z" format="1">
  <advance width="370"/>
  <unicode hex="005A"/>
  <outline>
    <contour>
      <point x="194" y="700" type="line"/>
      <point x="132" y="518" type="line"/>
      <point x="21" y="104" type="line"/>
      <point x="12" y="0" type="line"/>
      <point x="161" y="0" type="line"/>
      <point x="221" y="220" type="line"/>
      <point x="354" y="660" type="line"/>
      <point x="354" y="700" type="line"/>
    </contour>
    <contour>
      <point x="240" y="115" type="line"/>
      <point x="92" y="115" type="line"/>
      <point x="92" y="0" type="line"/>
      <point x="348" y="0" type="line"/>
      <point x="358" y="115" type="line"/>
    </contour>
    <contour>
      <point x="31" y="700" type="line"/>
      <point x="21" y="585" type="line"/>
      <point x="133" y="585" type="line"/>
      <point x="209" y="585" type="line"/>
      <point x="209" y="700" type="line"/>
    </contour>
  </outline>
</glyph>
<glyph name="asciicircum" format="1">
  <advance width="313"/>
  <unicode hex="005E"/>
  <outline>
    <contour>
      <point x="112" y="431" type="line"/>
      <point x="156" y="535" type="line"/>
      <point x="156" y="700" type="line"/>
      <point x="126" y="700" type="line"/>
      <point x="-20" y="445" type="line"/>
      <point x="-20" y="431" type="line"/>
    </contour>
    <contour>
      <point x="333" y="431" type="line"/>
      <point x="333" y="445" type="line"/>
      <point x="182" y="700" type="line"/>
      <point x="152" y="700" type="line"/>
      <point x="152" y="535" type="line"/>
      <point x="199" y="431" type="line"/>
    </contour>
  </outline>
</glyph>
<glyph name="grave" format="1">
  <advance width="280"/>
  <unicode hex="0060"/>
  <outline>
    <component base="acute" xOffset="280" xScale="-1"/>
    <contour>
      <point x="-102" y="650" type="move" name="_top"/>
    </contour>
  </outline>
</glyph>
<glyph name="a" format="1">
  <advance width="416"/>
  <unicode hex="0061"/>
  <outline>
    <contour>
      <point x="124" y="500" type="line"/>
      <point x="146" y="424" type="line"/>
      <point x="214" y="364" type="line"/>
      <point x="223" y="262" type="line"/>
      <point x="249" y="0" type="line"/>
      <point x="422" y="0" type="line"/>
      <point x="321" y="500" type="line"/>
    </contour>
    <contour>
      <point x="106" y="84" type="line"/>
      <point x="315" y="84" type="line"/>
      <point x="302" y="266" type="line"/>
      <point x="218" y="207" type="line"/>
      <point x="194" y="207" type="line"/>
      <point x="119" y="275" type="line"/>
    </contour>
    <contour>
      <point x="94" y="500" type="line"/>
      <point x="-6" y="0" type="line"/>
      <point x="166" y="0" type="line"/>
      <point x="192" y="262" type="line"/>
      <point x="200" y="365" type="line"/>
      <point x="266" y="424" type="line"/>
      <point x="290" y="500" type="line"/>
    </contour>
  </outline>
</glyph>
<glyph name="b" format="1">
  <advance width="444"/>
  <unicode hex="0062"/>
  <outline>
    <contour>
      <point x="177" y="500" type="line"/>
      <point x="177" y="398" type="line"/>
      <point x="231" y="398" type="line"/>
      <point x="252" y="380" type="line"/>
      <point x="252" y="336" type="line"/>
      <point x="231" y="316" type="line"/>
      <point x="177" y="316" type="line"/>
      <point x="177" y="259" type="line"/>
      <point x="347" y="259" type="line"/>
      <point x="420" y="321" type="line"/>
      <point x="420" y="419" type="line"/>
      <point x="324" y="500" type="line"/>
    </contour>
    <contour>
      <point x="177" y="316" type="line"/>
      <point x="177" y="215" type="line"/>
      <point x="237" y="215" type="line"/>
      <point x="258" y="196" type="line"/>
      <point x="258" y="126" type="line"/>
      <point x="237" y="106" type="line"/>
      <point x="177" y="106" type="line"/>
      <point x="177" y="0" type="line"/>
      <point x="330" y="0" type="line"/>
      <point x="426" y="81" type="line"/>
      <point x="426" y="224" type="line"/>
      <point x="320" y="316" type="line"/>
    </contour>
    <component base="i"/>
  </outline>
</glyph>
<glyph name="c" format="1">
  <advance width="445"/>
  <unicode hex="0063"/>
  <outline>
    <contour>
      <point x="145" y="500" type="line"/>
      <point x="30" y="402" type="line"/>
      <point x="30" y="99" type="line"/>
      <point x="145" y="0" type="line"/>
      <point x="311" y="0" type="line"/>
      <point x="419" y="89" type="line"/>
      <point x="419" y="219" type="line"/>
      <point x="262" y="219" type="line"/>
      <point x="261" y="133" type="line"/>
      <point x="241" y="118" type="line"/>
      <point x="222" y="118" type="line"/>
      <point x="201" y="136" type="line"/>
      <point x="201" y="367" type="line"/>
      <point x="219" y="384" type="line"/>
      <point x="244" y="384" type="line"/>
      <point x="261" y="372" type="line"/>
      <point x="261" y="292" type="line"/>
      <point x="417" y="292" type="line"/>
      <point x="417" y="427" type="line"/>
      <point x="328" y="500" type="line"/>
    </contour>
  </outline>
</glyph>
<glyph name="d" format="1">
  <advance width="462"/>
  <unicode hex="0064"/>
  <outline>
    <contour>
      <point x="178" y="500" type="line"/>
      <point x="178" y="385" type="line"/>
      <point x="243" y="385" type="line"/>
      <point x="267" y="364" type="line"/>
      <point x="267" y="142" type="line"/>
      <point x="243" y="120" type="line"/>
      <point x="178" y="120" type="line"/>
      <point x="178" y="0" type="line"/>
      <point x="322" y="0" type="line"/>
      <point x="442" y="103" type="line"/>
      <point x="442" y="397" type="line"/>
      <point x="322" y="500" type="line"/>
    </contour>
    <contour>
      <point x="19" y="500" type="line"/>
      <point x="19" y="0" type="line"/>
      <point x="190" y="0" type="line"/>
      <point x="190" y="500" type="line"/>
    </contour>
  </outline>
</glyph>
<glyph name="e" format="1">
  <advance width="328"/>
  <unicode hex="0065"/>
  <outline>
    <contour>
      <point x="124" y="215" type="line"/>
      <point x="289" y="208" type="line"/>
      <point x="289" y="318" type="line"/>
      <point x="124" y="312" type="line"/>
    </contour>
    <contour>
      <point x="124" y="385" type="line"/>
      <point x="200" y="385" type="line"/>
      <point x="309" y="385" type="line"/>
      <point x="299" y="500" type="line"/>
      <point x="124" y="500" type="line"/>
    </contour>
    <contour>
      <point x="124" y="0" type="line"/>
      <point x="309" y="0" type="line"/>
      <point x="319" y="115" type="line"/>
      <point x="205" y="115" type="line"/>
      <point x="124" y="115" type="line"/>
    </contour>
    <contour>
      <point x="19" y="500" type="line"/>
      <point x="19" y="0" type="line"/>
      <point x="190" y="0" type="line"/>
      <point x="190" y="500" type="line"/>
    </contour>
  </outline>
</glyph>
<glyph name="f" format="1">
  <advance width="335"/>
  <unicode hex="0066"/>
  <outline>
    <contour>
      <point x="134" y="194" type="line"/>
      <point x="305" y="187" type="line"/>
      <point x="305" y="297" type="line"/>
      <point x="134" y="291" type="line"/>
    </contour>
    <contour>
      <point x="134" y="385" type="line"/>
      <point x="216" y="385" type="line"/>
      <point x="325" y="385" type="line"/>
      <point x="315" y="500" type="line"/>
      <point x="134" y="500" type="line"/>
    </contour>
    <component base="i"/>
  </outline>
</glyph>
<glyph name="g" format="1">
  <advance width="458"/>
  <unicode hex="0067"/>
  <outline>
    <contour>
      <point x="416" y="279" type="line"/>
      <point x="227" y="279" type="line"/>
      <point x="227" y="245" type="line"/>
      <point x="270" y="189" type="line"/>
      <point x="270" y="142" type="line"/>
      <point x="246" y="120" type="line"/>
      <point x="219" y="120" type="line"/>
      <point x="195" y="143" type="line"/>
      <point x="195" y="362" type="line"/>
      <point x="219" y="385" type="line"/>
      <point x="250" y="385" type="line"/>
      <point x="271" y="371" type="line"/>
      <point x="271" y="316" type="line"/>
      <point x="426" y="316" type="line"/>
      <point x="428" y="426" type="line"/>
      <point x="318" y="500" type="line"/>
      <point x="139" y="500" type="line"/>
      <point x="20" y="397" type="line"/>
      <point x="20" y="103" type="line"/>
      <point x="139" y="0" type="line"/>
      <point x="328" y="0" type="line"/>
      <point x="438" y="94" type="line"/>
      <point x="438" y="247" type="line"/>
    </contour>
  </outline>
</glyph>
<glyph name="h" format="1">
  <advance width="438"/>
  <unicode hex="0068"/>
  <outline>
    <contour>
      <point x="125" y="207" type="line"/>
      <point x="315" y="207" type="line"/>
      <point x="315" y="317" type="line"/>
      <point x="125" y="317" type="line"/>
    </contour>
    <contour>
      <point x="20" y="500" type="line"/>
      <point x="20" y="0" type="line"/>
      <point x="191" y="0" type="line"/>
      <point x="191" y="500" type="line"/>
    </contour>
    <contour>
      <point x="247" y="500" type="line"/>
      <point x="247" y="0" type="line"/>
      <point x="418" y="0" type="line"/>
      <point x="418" y="500" type="line"/>
    </contour>
  </outline>
</glyph>
<glyph name="i" format="1">
  <advance width="209"/>
  <unicode hex="0069"/>
  <outline>
    <contour>
      <point x="19" y="500" type="line"/>
      <point x="19" y="0" type="line"/>
      <point x="190" y="0" type="line"/>
      <point x="190" y="500" type="line"/>
    </contour>
  </outline>
</glyph>
<glyph name="j" format="1">
  <advance width="411"/>
  <unicode hex="006A"/>
  <outline>
    <contour>
      <point x="226" y="500" type="line"/>
      <point x="226" y="136" type="line"/>
      <point x="205" y="118" type="line"/>
      <point x="186" y="118" type="line"/>
      <point x="166" y="133" type="line"/>
      <point x="165" y="239" type="line"/>
      <point x="8" y="239" type="line"/>
      <point x="8" y="89" type="line"/>
      <point x="116" y="0" type="line"/>
      <point x="282" y="0" type="line"/>
      <point x="397" y="99" type="line"/>
      <point x="397" y="500" type="line"/>
    </contour>
  </outline>
</glyph>
<glyph name="k" format="1">
  <advance width="448"/>
  <unicode hex="006B"/>
  <outline>
    <contour>
      <point x="275" y="500" type="line"/>
      <point x="205" y="320" type="line"/>
      <point x="190" y="300" type="line"/>
      <point x="187" y="106" type="line"/>
      <point x="349" y="272" type="line"/>
      <point x="458" y="500" type="line"/>
    </contour>
    <contour>
      <point x="209" y="216" type="line"/>
      <point x="271" y="0" type="line"/>
      <point x="447" y="0" type="line"/>
      <point x="351" y="317" type="line"/>
    </contour>
    <contour>
      <point x="20" y="497" type="line"/>
      <point x="20" y="0" type="line"/>
      <point x="191" y="0" type="line"/>
      <point x="191" y="497" type="line"/>
    </contour>
  </outline>
</glyph>
<glyph name="l" format="1">
  <advance width="338"/>
  <unicode hex="006C"/>
  <outline>
    <contour>
      <point x="100" y="136" type="line"/>
      <point x="100" y="0" type="line"/>
      <point x="324" y="0" type="line"/>
      <point x="338" y="136" type="line"/>
    </contour>
    <contour>
      <point x="20" y="500" type="line"/>
      <point x="20" y="0" type="line"/>
      <point x="191" y="0" type="line"/>
      <point x="191" y="500" type="line"/>
    </contour>
  </outline>
</glyph>
<glyph name="m" format="1">
  <advance width="628"/>
  <unicode hex="006D"/>
  <outline>
    <contour>
      <point x="100" y="500" type="line"/>
      <point x="137" y="424" type="line"/>
      <point x="205" y="364" type="line"/>
      <point x="224" y="257" type="line"/>
      <point x="265" y="0" type="line"/>
      <point x="338" y="0" type="line"/>
      <point x="297" y="500" type="line"/>
    </contour>
    <contour>
      <point x="40" y="500" type="line"/>
      <point x="40" y="0" type="line"/>
      <point x="193" y="0" type="line"/>
      <point x="193" y="257" type="line"/>
      <point x="194" y="365" type="line"/>
      <point x="257" y="424" type="line"/>
      <point x="286" y="500" type="line"/>
    </contour>
    <contour>
      <point x="356" y="500" type="line"/>
      <point x="383" y="424" type="line"/>
      <point x="448" y="364" type="line"/>
      <point x="450" y="257" type="line"/>
      <point x="450" y="0" type="line"/>
      <point x="588" y="0" type="line"/>
      <point x="588" y="500" type="line"/>
    </contour>
    <contour>
      <point x="346" y="500" type="line"/>
      <point x="306" y="0" type="line"/>
      <point x="378" y="0" type="line"/>
      <point x="419" y="257" type="line"/>
      <point x="437" y="365" type="line"/>
      <point x="503" y="424" type="line"/>
      <point x="588" y="500" type="line"/>
    </contour>
  </outline>
</glyph>
<glyph name="n" format="1">
  <advance width="469"/>
  <unicode hex="006E"/>
  <outline>
    <contour>
      <point x="279" y="500" type="line"/>
      <point x="279" y="326" type="line"/>
      <point x="283" y="224" type="line"/>
      <point x="279" y="210" type="line"/>
      <point x="269" y="221" type="line"/>
      <point x="245" y="327" type="line"/>
      <point x="190" y="500" type="line"/>
      <point x="19" y="500" type="line"/>
      <point x="19" y="0" type="line"/>
      <point x="190" y="0" type="line"/>
      <point x="190" y="160" type="line"/>
      <point x="183" y="286" type="line"/>
      <point x="187" y="304" type="line"/>
      <point x="199" y="290" type="line"/>
      <point x="222" y="199" type="line"/>
      <point x="279" y="25" type="line"/>
      <point x="279" y="0" type="line"/>
      <point x="450" y="0" type="line"/>
      <point x="450" y="500" type="line"/>
    </contour>
  </outline>
</glyph>
<glyph name="o" format="1">
  <advance width="467"/>
  <unicode hex="006F"/>
  <outline>
    <contour>
      <point x="139" y="500" type="line"/>
      <point x="20" y="397" type="line"/>
      <point x="20" y="103" type="line"/>
      <point x="139" y="0" type="line"/>
      <point x="327" y="0" type="line"/>
      <point x="447" y="103" type="line"/>
      <point x="447" y="397" type="line"/>
      <point x="327" y="500" type="line"/>
    </contour>
    <contour>
      <point x="272" y="366" type="line"/>
      <point x="272" y="140" type="line"/>
      <point x="249" y="120" type="line"/>
      <point x="218" y="120" type="line"/>
      <point x="195" y="140" type="line"/>
      <point x="195" y="366" type="line"/>
      <point x="218" y="385" type="line"/>
      <point x="249" y="385" type="line"/>
    </contour>
    <contour>
      <point x="236" y="500" type="move" name="top"/>
    </contour>
  </outline>
</glyph>
<glyph name="p" format="1">
  <advance width="424"/>
  <unicode hex="0070"/>
  <outline>
    <contour>
      <point x="90" y="500" type="line"/>
      <point x="90" y="390" type="line"/>
      <point x="215" y="390" type="line"/>
      <point x="239" y="369" type="line"/>
      <point x="239" y="296" type="line"/>
      <point x="221" y="266" type="line"/>
      <point x="107" y="196" type="line"/>
      <point x="107" y="49" type="line"/>
      <point x="326" y="178" type="line"/>
      <point x="414" y="281" type="line"/>
      <point x="414" y="397" type="line"/>
      <point x="294" y="500" type="line"/>
    </contour>
    <contour>
      <point x="19" y="500" type="line"/>
      <point x="19" y="0" type="line"/>
      <point x="190" y="0" type="line"/>
      <point x="190" y="500" type="line"/>
    </contour>
  </outline>
</glyph>
<glyph name="q" format="1">
  <advance width="479"/>
  <unicode hex="0071"/>
  <outline>
    <contour>
      <point x="139" y="500" type="line"/>
      <point x="24" y="402" type="line"/>
      <point x="24" y="99" type="line"/>
      <point x="139" y="0" type="line"/>
      <point x="285" y="0" type="line"/>
      <point x="431" y="145" type="line"/>
      <point x="431" y="402" type="line"/>
      <point x="315" y="500" type="line"/>
    </contour>
    <contour>
      <point x="216" y="278" type="line"/>
      <point x="130" y="216" type="line"/>
      <point x="163" y="131" type="line"/>
      <point x="205" y="169" type="line"/>
      <point x="211" y="169" type="line"/>
      <point x="220" y="164" type="line"/>
      <point x="226" y="159" type="line"/>
      <point x="239" y="66" type="line"/>
      <point x="337" y="-66" type="line"/>
      <point x="428" y="-66" type="line"/>
      <point x="455" y="91" type="line"/>
      <point x="410" y="91" type="line"/>
      <point x="393" y="112" type="line"/>
      <point x="381" y="212" type="line"/>
      <point x="270" y="278" type="line"/>
    </contour>
    <contour>
      <point x="260" y="376" type="line"/>
      <point x="260" y="143" type="line"/>
      <point x="233" y="118" type="line"/>
      <point x="208" y="118" type="line"/>
      <point x="195" y="128" type="line"/>
      <point x="195" y="376" type="line"/>
      <point x="209" y="388" type="line"/>
      <point x="246" y="388" type="line"/>
    </contour>
  </outline>
</glyph>
<glyph name="r" format="1">
  <advance width="444"/>
  <unicode hex="0072"/>
  <outline>
    <contour>
      <point x="106" y="500" type="line"/>
      <point x="106" y="388" type="line"/>
      <point x="226" y="388" type="line"/>
      <point x="241" y="373" type="line"/>
      <point x="241" y="285" type="line"/>
      <point x="225" y="257" type="line"/>
      <point x="156" y="207" type="line"/>
      <point x="157" y="74" type="line"/>
      <point x="231" y="122" type="line"/>
      <point x="359" y="213" type="line"/>
      <point x="415" y="281" type="line"/>
      <point x="415" y="409" type="line"/>
      <point x="325" y="500" type="line"/>
    </contour>
    <contour>
      <point x="20" y="500" type="line"/>
      <point x="20" y="0" type="line"/>
      <point x="191" y="0" type="line"/>
      <point x="191" y="500" type="line"/>
    </contour>
    <contour>
      <point x="231" y="122" type="line"/>
      <point x="258" y="0" type="line"/>
      <point x="432" y="0" type="line"/>
      <point x="359" y="213" type="line"/>
    </contour>
  </outline>
</glyph>
<glyph name="s" format="1">
  <advance width="403"/>
  <unicode hex="0073"/>
  <outline>
    <contour>
      <point x="99" y="500" type="line"/>
      <point x="17" y="418" type="line"/>
      <point x="17" y="310" type="line"/>
      <point x="58" y="236" type="line"/>
      <point x="216" y="177" type="line"/>
      <point x="226" y="166" type="line"/>
      <point x="226" y="129" type="line"/>
      <point x="210" y="117" type="line"/>
      <point x="184" y="117" type="line"/>
      <point x="169" y="130" type="line"/>
      <point x="169" y="179" type="line"/>
      <point x="13" y="179" type="line"/>
      <point x="13" y="81" type="line"/>
      <point x="108" y="0" type="line"/>
      <point x="284" y="0" type="line"/>
      <point x="390" y="92" type="line"/>
      <point x="390" y="218" type="line"/>
      <point x="336" y="291" type="line"/>
      <point x="189" y="340" type="line"/>
      <point x="174" y="357" type="line"/>
      <point x="174" y="374" type="line"/>
      <point x="187" y="388" type="line"/>
      <point x="226" y="387" type="line"/>
      <point x="237" y="375" type="line"/>
      <point x="237" y="340" type="line"/>
      <point x="378" y="340" type="line"/>
      <point x="378" y="427" type="line"/>
      <point x="300" y="500" type="line"/>
    </contour>
    <contour>
      <point x="199" y="500" type="move" name="top"/>
    </contour>
    <contour>
      <point x="199" y="0" type="move" name="bottom"/>
    </contour>
  </outline>
</glyph>
<glyph name="t" format="1">
  <advance width="420"/>
  <unicode hex="0074"/>
  <outline>
    <contour>
      <point x="22" y="500" type="line"/>
      <point x="5" y="370" type="line"/>
      <point x="415" y="370" type="line"/>
      <point x="398" y="500" type="line"/>
    </contour>
    <contour>
      <point x="124" y="500" type="line"/>
      <point x="124" y="0" type="line"/>
      <point x="295" y="0" type="line"/>
      <point x="295" y="500" type="line"/>
    </contour>
  </outline>
</glyph>
<glyph name="u" format="1">
  <advance width="435"/>
  <unicode hex="0075"/>
  <outline>
    <contour>
      <point x="242" y="500" type="line"/>
      <point x="241" y="132" type="line"/>
      <point x="227" y="118" type="line"/>
      <point x="207" y="118" type="line"/>
      <point x="192" y="132" type="line"/>
      <point x="192" y="500" type="line"/>
      <point x="21" y="500" type="line"/>
      <point x="21" y="99" type="line"/>
      <point x="135" y="0" type="line"/>
      <point x="297" y="0" type="line"/>
      <point x="413" y="99" type="line"/>
      <point x="414" y="500" type="line"/>
    </contour>
  </outline>
</glyph>
<glyph name="v" format="1">
  <advance width="416"/>
  <unicode hex="0076"/>
  <outline>
    <contour>
      <point x="422" y="500" type="line"/>
      <point x="249" y="500" type="line"/>
      <point x="223" y="250" type="line"/>
      <point x="214" y="136" type="line"/>
      <point x="146" y="76" type="line"/>
      <point x="124" y="0" type="line"/>
      <point x="321" y="0" type="line"/>
    </contour>
    <contour>
      <point x="266" y="76" type="line"/>
      <point x="200" y="135" type="line"/>
      <point x="192" y="250" type="line"/>
      <point x="166" y="500" type="line"/>
      <point x="-6" y="500" type="line"/>
      <point x="94" y="0" type="line"/>
      <point x="290" y="0" type="line"/>
    </contour>
  </outline>
</glyph>
<glyph name="w" format="1">
  <advance width="652"/>
  <unicode hex="0077"/>
  <outline>
    <contour>
      <point x="342" y="500" type="line"/>
      <point x="269" y="500" type="line"/>
      <point x="223" y="220" type="line"/>
      <point x="209" y="136" type="line"/>
      <point x="141" y="76" type="line"/>
      <point x="104" y="0" type="line"/>
      <point x="301" y="0" type="line"/>
    </contour>
    <contour>
      <point x="261" y="76" type="line"/>
      <point x="198" y="135" type="line"/>
      <point x="195" y="220" type="line"/>
      <point x="179" y="500" type="line"/>
      <point x="-6" y="500" type="line"/>
      <point x="74" y="0" type="line"/>
      <point x="290" y="0" type="line"/>
    </contour>
    <contour>
      <point x="658" y="500" type="line"/>
      <point x="472" y="500" type="line"/>
      <point x="456" y="220" type="line"/>
      <point x="452" y="136" type="line"/>
      <point x="387" y="76" type="line"/>
      <point x="360" y="0" type="line"/>
      <point x="577" y="0" type="line"/>
    </contour>
    <contour>
      <point x="507" y="76" type="line"/>
      <point x="441" y="135" type="line"/>
      <point x="428" y="220" type="line"/>
      <point x="382" y="500" type="line"/>
      <point x="310" y="500" type="line"/>
      <point x="350" y="0" type="line"/>
      <point x="546" y="0" type="line"/>
    </contour>
  </outline>
</glyph>
<glyph name="x" format="1">
  <advance width="432"/>
  <unicode hex="0078"/>
  <outline>
    <contour>
      <point x="420" y="500" type="line"/>
      <point x="250" y="500" type="line"/>
      <point x="228" y="368" type="line"/>
      <point x="219" y="310" type="line"/>
      <point x="157" y="235" type="line"/>
      <point x="153" y="197" type="line"/>
      <point x="298" y="197" type="line"/>
    </contour>
    <contour>
      <point x="271" y="235" type="line"/>
      <point x="211" y="310" type="line"/>
      <point x="203" y="368" type="line"/>
      <point x="181" y="500" type="line"/>
      <point x="12" y="500" type="line"/>
      <point x="140" y="197" type="line"/>
      <point x="277" y="197" type="line"/>
    </contour>
    <contour>
      <point x="145" y="256" type="line"/>
      <point x="157" y="222" type="line"/>
      <point x="219" y="171" type="line"/>
      <point x="228" y="126" type="line"/>
      <point x="250" y="0" type="line"/>
      <point x="420" y="0" type="line"/>
      <point x="297" y="334" type="line"/>
    </contour>
    <contour>
      <point x="128" y="299" type="line"/>
      <point x="12" y="0" type="line"/>
      <point x="181" y="0" type="line"/>
      <point x="203" y="126" type="line"/>
      <point x="211" y="171" type="line"/>
      <point x="271" y="222" type="line"/>
      <point x="285" y="256" type="line"/>
    </contour>
  </outline>
</glyph>
<glyph name="y" format="1">
  <advance width="442"/>
  <unicode hex="0079"/>
  <outline>
    <contour>
      <point x="447" y="500" type="line"/>
      <point x="258" y="500" type="line"/>
      <point x="236" y="363" type="line"/>
      <point x="227" y="289" type="line"/>
      <point x="159" y="239" type="line"/>
      <point x="137" y="213" type="line"/>
      <point x="305" y="74" type="line"/>
    </contour>
    <contour>
      <point x="279" y="239" type="line"/>
      <point x="213" y="288" type="line"/>
      <point x="205" y="363" type="line"/>
      <point x="184" y="500" type="line"/>
      <point x="-5" y="500" type="line"/>
      <point x="130" y="93" type="line"/>
      <point x="303" y="213" type="line"/>
    </contour>
    <contour>
      <point x="124" y="245" type="line"/>
      <point x="124" y="0" type="line"/>
      <point x="315" y="0" type="line"/>
      <point x="315" y="245" type="line"/>
    </contour>
    <contour>
      <point x="221" y="500" type="move" name="top"/>
    </contour>
  </outline>
</glyph>
<glyph name="z" format="1">
  <advance width="391"/>
  <unicode hex="007A"/>
  <outline>
    <contour>
      <point x="218" y="500" type="line"/>
      <point x="161" y="368" type="line"/>
      <point x="27" y="104" type="line"/>
      <point x="18" y="0" type="line"/>
      <point x="167" y="0" type="line"/>
      <point x="237" y="130" type="line"/>
      <point x="373" y="423" type="line"/>
      <point x="373" y="500" type="line"/>
    </contour>
    <contour>
      <point x="258" y="115" type="line"/>
      <point x="101" y="115" type="line"/>
      <point x="101" y="0" type="line"/>
      <point x="362" y="0" type="line"/>
      <point x="372" y="122" type="line"/>
    </contour>
    <contour>
      <point x="34" y="500" type="line"/>
      <point x="22" y="378" type="line"/>
      <point x="132" y="385" type="line"/>
      <point x="228" y="385" type="line"/>
      <point x="228" y="500" type="line"/>
    </contour>
    <contour>
      <point x="196" y="500" type="move" name="top"/>
    </contour>
  </outline>
</glyph>
<glyph name="braceleft" format="1">
  <advance width="243"/>
  <unicode hex="007B"/>
  <outline>
    <contour>
      <point x="34" y="116" type="line"/>
      <point x="34" y="-17" type="line"/>
      <point x="153" y="-120" type="line"/>
      <point x="235" y="-120" type="line"/>
      <point x="235" y="0" type="line"/>
      <point x="223" y="0" type="line"/>
      <point x="209" y="12" type="line"/>
      <point x="209" y="116" type="line"/>
    </contour>
    <contour>
      <point x="209" y="233" type="line"/>
      <point x="90" y="336" type="line"/>
      <point x="8" y="336" type="line"/>
      <point x="8" y="230" type="line"/>
      <point x="10" y="230" type="line"/>
      <point x="34" y="209" type="line"/>
      <point x="34" y="116" type="line"/>
      <point x="209" y="116" type="line"/>
    </contour>
    <contour>
      <point x="209" y="568" type="line"/>
      <point x="223" y="580" type="line"/>
      <point x="235" y="580" type="line"/>
      <point x="235" y="700" type="line"/>
      <point x="153" y="700" type="line"/>
      <point x="34" y="597" type="line"/>
      <point x="34" y="554" type="line"/>
      <point x="209" y="554" type="line"/>
    </contour>
    <contour>
      <point x="34" y="554" type="line"/>
      <point x="34" y="372" type="line"/>
      <point x="10" y="351" type="line"/>
      <point x="8" y="351" type="line"/>
      <point x="8" y="245" type="line"/>
      <point x="90" y="245" type="line"/>
      <point x="209" y="348" type="line"/>
      <point x="209" y="554" type="line"/>
    </contour>
  </outline>
</glyph>
<glyph name="bar" format="1">
  <advance width="251"/>
  <unicode hex="007C"/>
  <outline>
    <contour>
      <point x="40" y="800" type="line"/>
      <point x="40" y="-200" type="line"/>
      <point x="211" y="-200" type="line"/>
      <point x="211" y="800" type="line"/>
    </contour>
  </outline>
</glyph>
<glyph name="cent" format="1">
  <advance width="469"/>
  <unicode hex="00A2"/>
  <outline>
    <contour>
      <point x="145" y="600" type="line"/>
      <point x="30" y="502" type="line"/>
      <point x="30" y="199" type="line"/>
      <point x="145" y="100" type="line"/>
      <point x="335" y="100" type="line"/>
      <point x="443" y="189" type="line"/>
      <point x="443" y="319" type="line"/>
      <point x="286" y="319" type="line"/>
      <point x="285" y="233" type="line"/>
      <point x="265" y="218" type="line"/>
      <point x="222" y="218" type="line"/>
      <point x="201" y="236" type="line"/>
      <point x="201" y="467" type="line"/>
      <point x="219" y="484" type="line"/>
      <point x="268" y="484" type="line"/>
      <point x="285" y="472" type="line"/>
      <point x="285" y="392" type="line"/>
      <point x="441" y="392" type="line"/>
      <point x="441" y="527" type="line"/>
      <point x="352" y="600" type="line"/>
    </contour>
    <contour>
      <point x="219" y="0" type="line"/>
      <point x="267" y="0" type="line"/>
      <point x="267" y="700" type="line"/>
      <point x="219" y="700" type="line"/>
    </contour>
  </outline>
</glyph>
<glyph name="sterling" format="1">
  <advance width="527"/>
  <unicode hex="00A3"/>
  <outline>
    <contour>
      <point x="255" y="700" type="line"/>
      <point x="142" y="602" type="line"/>
      <point x="142" y="135" type="line"/>
      <point x="128" y="124" type="line"/>
      <point x="109" y="124" type="line"/>
      <point x="95" y="135" type="line"/>
      <point x="5" y="49" type="line"/>
      <point x="68" y="0" type="line"/>
      <point x="202" y="0" type="line"/>
      <point x="311" y="99" type="line"/>
      <point x="311" y="572" type="line"/>
      <point x="324" y="584" type="line"/>
      <point x="343" y="584" type="line"/>
      <point x="357" y="573" type="line"/>
      <point x="357" y="453" type="line"/>
      <point x="507" y="453" type="line"/>
      <point x="507" y="621" type="line"/>
      <point x="406" y="700" type="line"/>
    </contour>
    <contour>
      <point x="153" y="136" type="line"/>
      <point x="283" y="0" type="line"/>
      <point x="493" y="0" type="line"/>
      <point x="507" y="136" type="line"/>
    </contour>
    <component base="hyphen" xOffset="63" yOffset="7" xScale="1.250"/>
  </outline>
</glyph>
<glyph name="currency" format="1">
  <advance width="528"/>
  <unicode hex="00A4"/>
  <outline>
    <contour>
      <point x="71" y="376" type="line"/>
      <point x="71" y="265" type="line"/>
      <point x="195" y="155" type="line"/>
      <point x="283" y="155" type="line"/>
      <point x="273" y="260" type="line"/>
      <point x="255" y="260" type="line"/>
      <point x="224" y="289" type="line"/>
      <point x="224" y="357" type="line"/>
      <point x="255" y="385" type="line"/>
      <point x="273" y="385" type="line"/>
      <point x="283" y="485" type="line"/>
      <point x="195" y="485" type="line"/>
    </contour>
    <contour>
      <point x="244" y="485" type="line"/>
      <point x="254" y="385" type="line"/>
      <point x="273" y="385" type="line"/>
      <point x="304" y="357" type="line"/>
      <point x="304" y="289" type="line"/>
      <point x="273" y="260" type="line"/>
      <point x="254" y="260" type="line"/>
      <point x="244" y="155" type="line"/>
      <point x="332" y="155" type="line"/>
      <point x="456" y="265" type="line"/>
      <point x="456" y="376" type="line"/>
      <point x="332" y="485" type="line"/>
    </contour>
    <component base="quotesingle" xOffset="380" yOffset="97" xScale="0.536" yScale="0.536" xyScale="0.536" yxScale="-0.536"/>
    <component base="quotesingle" xOffset="148" yOffset="97" xScale="-0.536" yScale="0.536" xyScale="0.536" yxScale="0.536"/>
    <component base="quotesingle" xOffset="380" yOffset="543" xScale="0.536" yScale="-0.536" xyScale="-0.536" yxScale="-0.536"/>
    <component base="quotesingle" xOffset="148" yOffset="543" xScale="-0.536" yScale="-0.536" xyScale="-0.536" yxScale="0.536"/>
  </outline>
</glyph>
<glyph name="brokenbar" format="1">
  <advance width="251"/>
  <unicode hex="00A6"/>
  <outline>
    <contour>
      <point x="40" y="270" type="line"/>
      <point x="40" y="-200" type="line"/>
      <point x="211" y="-200" type="line"/>
      <point x="211" y="270" type="line"/>
    </contour>
    <contour>
      <point x="211" y="330" type="line"/>
      <point x="211" y="800" type="line"/>
      <point x="40" y="800" type="line"/>
      <point x="40" y="330" type="line"/>
    </contour>
  </outline>
</glyph>
<glyph name="section" format="1">
  <advance width="432"/>
  <unicode hex="00A7"/>
  <outline>
    <contour>
      <point x="341" y="286" type="line"/>
      <point x="201" y="335" type="line"/>
      <point x="187" y="351" type="line"/>
      <point x="187" y="371" type="line"/>
      <point x="199" y="384" type="line"/>
      <point x="235" y="383" type="line"/>
      <point x="242" y="375" type="line"/>
      <point x="332" y="383" type="line"/>
      <point x="255" y="456" type="line"/>
      <point x="94" y="456" type="line"/>
      <point x="30" y="388" type="line"/>
      <point x="30" y="312" type="line"/>
      <point x="70" y="239" type="line"/>
      <point x="222" y="180" type="line"/>
      <point x="231" y="170" type="line"/>
      <point x="231" y="128" type="line"/>
      <point x="216" y="117" type="line"/>
      <point x="188" y="117" type="line"/>
      <point x="178" y="128" type="line"/>
      <point x="178" y="182" type="line"/>
      <point x="26" y="182" type="line"/>
      <point x="26" y="81" type="line"/>
      <point x="120" y="0" type="line"/>
      <point x="289" y="0" type="line"/>
      <point x="394" y="92" type="line"/>
      <point x="394" y="214" type="line"/>
    </contour>
    <contour>
      <point x="353" y="490" type="line"/>
      <point x="213" y="538" type="line"/>
      <point x="198" y="555" type="line"/>
      <point x="198" y="574" type="line"/>
      <point x="210" y="588" type="line"/>
      <point x="248" y="587" type="line"/>
      <point x="254" y="578" type="line"/>
      <point x="254" y="538" type="line"/>
      <point x="394" y="538" type="line"/>
      <point x="394" y="627" type="line"/>
      <point x="317" y="700" type="line"/>
      <point x="122" y="700" type="line"/>
      <point x="42" y="618" type="line"/>
      <point x="42" y="516" type="line"/>
      <point x="81" y="443" type="line"/>
      <point x="234" y="384" type="line"/>
      <point x="243" y="374" type="line"/>
      <point x="243" y="346" type="line"/>
      <point x="228" y="335" type="line"/>
      <point x="201" y="335" type="line"/>
      <point x="191" y="346" type="line"/>
      <point x="87" y="348" type="line"/>
      <point x="181" y="268" type="line"/>
      <point x="321" y="268" type="line"/>
      <point x="406" y="340" type="line"/>
      <point x="406" y="417" type="line"/>
    </contour>
  </outline>
</glyph>
<glyph name="dieresis" format="1">
  <advance width="391"/>
  <unicode hex="00A8"/>
  <outline>
    <component base="dotaccent" xOffset="209"/>
    <component base="dotaccent"/>
    <contour>
      <point x="199" y="700" type="move" name="_top"/>
    </contour>
  </outline>
</glyph>
<glyph name="copyright" format="1">
  <advance width="766"/>
  <unicode hex="00A9"/>
  <outline>
    <contour>
      <point x="616" y="700" type="line"/>
      <point x="149" y="700" type="line"/>
      <point x="30" y="597" type="line"/>
      <point x="30" y="103" type="line"/>
      <point x="149" y="0" type="line"/>
      <point x="616" y="0" type="line"/>
      <point x="736" y="103" type="line"/>
      <point x="736" y="597" type="line"/>
    </contour>
    <contour>
      <point x="561" y="132" type="line"/>
      <point x="547" y="120" type="line"/>
      <point x="219" y="120" type="line"/>
      <point x="205" y="132" type="line"/>
      <point x="205" y="574" type="line"/>
      <point x="219" y="585" type="line"/>
      <point x="547" y="585" type="line"/>
      <point x="561" y="574" type="line"/>
    </contour>
    <component base="c" xOffset="196" yOffset="144" xScale="0.837" yScale="0.837"/>
  </outline>
</glyph>
<glyph name="registered" format="1">
  <advance width="782"/>
  <unicode hex="00AE"/>
  <outline>
    <contour>
      <point x="632" y="700" type="line"/>
      <point x="149" y="700" type="line"/>
      <point x="30" y="597" type="line"/>
      <point x="30" y="103" type="line"/>
      <point x="149" y="0" type="line"/>
      <point x="632" y="0" type="line"/>
      <point x="752" y="103" type="line"/>
      <point x="752" y="597" type="line"/>
    </contour>
    <contour>
      <point x="577" y="132" type="line"/>
      <point x="563" y="120" type="line"/>
      <point x="219" y="120" type="line"/>
      <point x="205" y="132" type="line"/>
      <point x="205" y="574" type="line"/>
      <point x="219" y="585" type="line"/>
      <point x="563" y="585" type="line"/>
      <point x="577" y="574" type="line"/>
    </contour>
    <component base="r" xOffset="212" yOffset="144" xScale="0.837" yScale="0.837"/>
  </outline>
</glyph>
<glyph name="macron" format="1">
  <advance width="416"/>
  <unicode hex="00AF"/>
  <outline>
    <contour>
      <point x="146" y="778" type="line"/>
      <point x="416" y="778" type="line"/>
      <point x="416" y="909" type="line"/>
      <point x="146" y="909" type="line"/>
    </contour>
    <contour>
      <point x="0" y="778" type="line"/>
      <point x="274" y="778" type="line"/>
      <point x="274" y="909" type="line"/>
      <point x="0" y="909" type="line"/>
    </contour>
    <contour>
      <point x="211" y="700" type="move" name="_top"/>
    </contour>
  </outline>
</glyph>
<glyph name="degree" format="1">
  <advance width="405"/>
  <unicode hex="00B0"/>
  <outline>
    <contour>
      <point x="10" y="591" type="line"/>
      <point x="10" y="470" type="line"/>
      <point x="134" y="360" type="line"/>
      <point x="222" y="360" type="line"/>
      <point x="212" y="485" type="line"/>
      <point x="194" y="485" type="line"/>
      <point x="163" y="514" type="line"/>
      <point x="163" y="552" type="line"/>
      <point x="194" y="580" type="line"/>
      <point x="212" y="580" type="line"/>
      <point x="222" y="700" type="line"/>
      <point x="134" y="700" type="line"/>
    </contour>
    <contour>
      <point x="183" y="700" type="line"/>
      <point x="193" y="580" type="line"/>
      <point x="212" y="580" type="line"/>
      <point x="243" y="552" type="line"/>
      <point x="243" y="514" type="line"/>
      <point x="212" y="485" type="line"/>
      <point x="193" y="485" type="line"/>
      <point x="183" y="360" type="line"/>
      <point x="271" y="360" type="line"/>
      <point x="395" y="470" type="line"/>
      <point x="395" y="591" type="line"/>
      <point x="271" y="700" type="line"/>
    </contour>
  </outline>
</glyph>
<glyph name="acute" format="1">
  <advance width="280"/>
  <unicode hex="00B4"/>
  <outline>
    <contour>
      <point x="105" y="972" type="line"/>
      <point x="0" y="766" type="line"/>
      <point x="165" y="766" type="line"/>
      <point x="280" y="972" type="line"/>
    </contour>
    <contour>
      <point x="93" y="700" type="move" name="_top"/>
    </contour>
  </outline>
</glyph>
<glyph name="paragraph" format="1">
  <advance width="596"/>
  <unicode hex="00B6"/>
  <outline>
    <contour>
      <point x="16" y="597" type="line"/>
      <point x="16" y="377" type="line"/>
      <point x="104" y="274" type="line"/>
      <point x="332" y="145" type="line"/>
      <point x="332" y="700" type="line"/>
      <point x="136" y="700" type="line"/>
    </contour>
    <contour>
      <point x="175" y="-100" type="line"/>
      <point x="346" y="-100" type="line"/>
      <point x="346" y="700" type="line"/>
      <point x="175" y="700" type="line"/>
    </contour>
    <contour>
      <point x="385" y="-100" type="line"/>
      <point x="556" y="-100" type="line"/>
      <point x="556" y="700" type="line"/>
      <point x="385" y="700" type="line"/>
    </contour>
  </outline>
</glyph>
<glyph name="cedilla" format="1">
  <advance width="293"/>
  <unicode hex="00B8"/>
  <outline>
    <component base="ogonek" xOffset="293" xScale="-1"/>
    <contour>
      <point x="-36" y="-6" type="move" name="_bottom"/>
    </contour>
  </outline>
</glyph>
<glyph name="AE" format="1">
  <advance width="528"/>
  <unicode hex="00C6"/>
  <outline>
    <contour>
      <point x="120" y="138" type="line"/>
      <point x="303" y="138" type="line"/>
      <point x="303" y="307" type="line"/>
      <point x="218" y="243" type="line"/>
      <point x="205" y="243" type="line"/>
      <point x="120" y="307" type="line"/>
    </contour>
    <contour>
      <point x="101" y="700" type="line"/>
      <point x="0" y="0" type="line"/>
      <point x="172" y="0" type="line"/>
      <point x="202" y="380" type="line"/>
      <point x="216" y="565" type="line"/>
      <point x="282" y="624" type="line"/>
      <point x="306" y="700" type="line"/>
    </contour>
    <component base="E" xOffset="189"/>
    <contour>
      <point x="385" y="10" type="move" name="ogonek"/>
    </contour>
    <contour>
      <point x="214" y="700" type="move" name="top"/>
    </contour>
  </outline>
</glyph>
<glyph name="Oslash" format="1">
  <advance width="505"/>
  <unicode hex="00D8"/>
  <outline>
    <contour>
      <point x="355" y="700" type="line"/>
      <point x="149" y="700" type="line"/>
      <point x="30" y="597" type="line"/>
      <point x="30" y="103" type="line"/>
      <point x="149" y="0" type="line"/>
      <point x="355" y="0" type="line"/>
      <point x="475" y="103" type="line"/>
      <point x="475" y="597" type="line"/>
    </contour>
    <contour>
      <point x="300" y="132" type="line"/>
      <point x="286" y="120" type="line"/>
      <point x="219" y="120" type="line"/>
      <point x="205" y="132" type="line"/>
      <point x="205" y="574" type="line"/>
      <point x="219" y="585" type="line"/>
      <point x="286" y="585" type="line"/>
      <point x="300" y="574" type="line"/>
    </contour>
    <contour>
      <point x="306" y="776" type="line"/>
      <point x="116" y="-74" type="line"/>
      <point x="198" y="-74" type="line"/>
      <point x="388" y="776" type="line"/>
    </contour>
    <contour>
      <point x="236" y="700" type="move" name="top"/>
    </contour>
  </outline>
</glyph>
<glyph name="Thorn" format="1">
  <advance width="450"/>
  <unicode hex="00DE"/>
  <outline>
    <contour>
      <point x="110" y="599" type="line"/>
      <point x="110" y="489" type="line"/>
      <point x="245" y="489" type="line"/>
      <point x="259" y="475" type="line"/>
      <point x="259" y="300" type="line"/>
      <point x="241" y="270" type="line"/>
      <point x="127" y="200" type="line"/>
      <point x="127" y="44" type="line"/>
      <point x="346" y="173" type="line"/>
      <point x="434" y="276" type="line"/>
      <point x="434" y="496" type="line"/>
      <point x="314" y="599" type="line"/>
    </contour>
    <component base="I"/>
  </outline>
</glyph>
<glyph name="germandbls" format="1">
  <advance width="488"/>
  <unicode hex="00DF"/>
  <outline>
    <contour>
      <point x="225" y="316" type="line"/>
      <point x="225" y="202" type="line"/>
      <point x="271" y="202" type="line"/>
      <point x="295" y="181" type="line"/>
      <point x="295" y="142" type="line"/>
      <point x="271" y="120" type="line"/>
      <point x="225" y="120" type="line"/>
      <point x="225" y="0" type="line"/>
      <point x="350" y="0" type="line"/>
      <point x="470" y="103" type="line"/>
      <point x="470" y="213" type="line"/>
      <point x="350" y="316" type="line"/>
    </contour>
    <contour>
      <point x="341" y="500" type="line"/>
      <point x="140" y="500" type="line"/>
      <point x="24" y="397" type="line"/>
      <point x="24" y="0" type="line"/>
      <point x="195" y="0" type="line"/>
      <point x="195" y="364" type="line"/>
      <point x="219" y="385" type="line"/>
      <point x="262" y="385" type="line"/>
      <point x="286" y="364" type="line"/>
      <point x="286" y="339" type="line"/>
      <point x="262" y="317" type="line"/>
      <point x="225" y="317" type="line"/>
      <point x="225" y="220" type="line"/>
      <point x="341" y="220" type="line"/>
      <point x="461" y="323" type="line"/>
      <point x="461" y="397" type="line"/>
    </contour>
    <contour>
      <point x="210" y="10" type="move" name="ogonek"/>
    </contour>
    <contour>
      <point x="110" y="700" type="move" name="top"/>
    </contour>
  </outline>
</glyph>
<glyph name="ae" format="1">
  <advance width="560"/>
  <unicode hex="00E6"/>
  <outline>
    <contour>
      <point x="127" y="84" type="line"/>
      <point x="336" y="84" type="line"/>
      <point x="323" y="266" type="line"/>
      <point x="239" y="207" type="line"/>
      <point x="215" y="207" type="line"/>
      <point x="160" y="275" type="line"/>
    </contour>
    <contour>
      <point x="122" y="500" type="line"/>
      <point x="-5" y="0" type="line"/>
      <point x="170" y="0" type="line"/>
      <point x="219" y="262" type="line"/>
      <point x="234" y="365" type="line"/>
      <point x="300" y="424" type="line"/>
      <point x="304" y="500" type="line"/>
    </contour>
    <component base="e" xOffset="228"/>
    <contour>
      <point x="214" y="500" type="move" name="top"/>
    </contour>
  </outline>
</glyph>
<glyph name="oslash" format="1">
  <advance width="467"/>
  <unicode hex="00F8"/>
  <outline>
    <contour>
      <point x="277" y="584" type="line"/>
      <point x="120" y="-84" type="line"/>
      <point x="200" y="-84" type="line"/>
      <point x="357" y="584" type="line"/>
    </contour>
    <component base="o"/>
  </outline>
</glyph>
<glyph name="thorn" format="1">
  <advance width="435"/>
  <unicode hex="00FE"/>
  <outline>
    <contour>
      <point x="101" y="450" type="line"/>
      <point x="101" y="340" type="line"/>
      <point x="226" y="340" type="line"/>
      <point x="250" y="319" type="line"/>
      <point x="250" y="256" type="line"/>
      <point x="232" y="226" type="line"/>
      <point x="118" y="156" type="line"/>
      <point x="118" y="19" type="line"/>
      <point x="337" y="148" type="line"/>
      <point x="425" y="251" type="line"/>
      <point x="425" y="347" type="line"/>
      <point x="305" y="450" type="line"/>
    </contour>
    <contour>
      <point x="30" y="500" type="line"/>
      <point x="30" y="0" type="line"/>
      <point x="201" y="0" type="line"/>
      <point x="201" y="500" type="line"/>
    </contour>
  </outline>
</glyph>
<glyph name="dcroat" format="1">
  <advance width="483"/>
  <unicode hex="0111"/>
  <outline>
    <contour>
      <point x="8" y="197" type="line"/>
      <point x="267" y="197" type="line"/>
      <point x="267" y="328" type="line"/>
      <point x="8" y="328" type="line"/>
    </contour>
    <component base="d" xOffset="34"/>
  </outline>
</glyph>
<glyph name="dotlessi" format="1">
  <advance width="211"/>
  <unicode hex="0131"/>
  <outline>
    <component base="i"/>
    <contour>
      <point x="106" y="500" type="move" name="top"/>
    </contour>
    <contour>
      <point x="190" y="10" type="move" name="ogonek"/>
    </contour>
  </outline>
</glyph>
<glyph name="Lslash" format="1">
  <advance width="377"/>
  <unicode hex="0141"/>
  <outline>
    <contour>
      <point x="8" y="205" type="line"/>
      <point x="361" y="302" type="line"/>
      <point x="361" y="455" type="line"/>
      <point x="8" y="358" type="line"/>
    </contour>
    <component base="L" xOffset="34"/>
  </outline>
</glyph>
<glyph name="lslash" format="1">
  <advance width="392"/>
  <unicode hex="0142"/>
  <outline>
    <contour>
      <point x="24" y="122" type="line"/>
      <point x="355" y="212" type="line"/>
      <point x="355" y="365" type="line"/>
      <point x="24" y="275" type="line"/>
    </contour>
    <component base="l" xOffset="54"/>
  </outline>
</glyph>
<glyph name="Eng" format="1">
  <advance width="491"/>
  <unicode hex="014A"/>
  <outline>
    <contour>
      <point x="290" y="195" type="line"/>
      <point x="290" y="-169" type="line"/>
      <point x="269" y="-187" type="line"/>
      <point x="257" y="-187" type="line"/>
      <point x="237" y="-172" type="line"/>
      <point x="236" y="-66" type="line"/>
      <point x="79" y="-66" type="line"/>
      <point x="79" y="-216" type="line"/>
      <point x="187" y="-305" type="line"/>
      <point x="346" y="-305" type="line"/>
      <point x="461" y="-206" type="line"/>
      <point x="461" y="195" type="line"/>
    </contour>
    <component base="N" xOffset="-10"/>
  </outline>
</glyph>
<glyph name="eng" format="1">
  <advance width="471"/>
  <unicode hex="014B"/>
  <outline>
    <contour>
      <point x="280" y="142" type="line"/>
      <point x="280" y="-122" type="line"/>
      <point x="259" y="-140" type="line"/>
      <point x="240" y="-140" type="line"/>
      <point x="220" y="-125" type="line"/>
      <point x="219" y="-49" type="line"/>
      <point x="62" y="-49" type="line"/>
      <point x="62" y="-169" type="line"/>
      <point x="170" y="-258" type="line"/>
      <point x="336" y="-258" type="line"/>
      <point x="451" y="-159" type="line"/>
      <point x="451" y="142" type="line"/>
    </contour>
    <component base="n"/>
  </outline>
</glyph>
<glyph name="circumflex" format="1">
  <advance width="390"/>
  <unicode hex="02C6"/>
  <outline>
    <component base="caron" yOffset="1738" yScale="-1"/>
    <contour>
      <point x="199" y="700" type="move" name="_top"/>
    </contour>
  </outline>
</glyph>
<glyph name="caron" format="1">
  <advance width="390"/>
  <unicode hex="02C7"/>
  <outline>
    <contour>
      <point x="245" y="972" type="line"/>
      <point x="140" y="766" type="line"/>
      <point x="265" y="766" type="line"/>
      <point x="390" y="972" type="line"/>
    </contour>
    <contour>
      <point x="125" y="766" type="line"/>
      <point x="250" y="766" type="line"/>
      <point x="145" y="972" type="line"/>
      <point x="0" y="972" type="line"/>
    </contour>
    <contour>
      <point x="194" y="700" type="move" name="_top"/>
    </contour>
  </outline>
</glyph>
<glyph name="breve" format="1">
  <advance width="341"/>
  <unicode hex="02D8"/>
  <outline>
    <contour>
      <point x="0" y="989" type="line"/>
      <point x="0" y="849" type="line"/>
      <point x="73" y="778" type="line"/>
      <point x="268" y="778" type="line"/>
      <point x="341" y="849" type="line"/>
      <point x="341" y="989" type="line"/>
      <point x="202" y="941" type="line"/>
      <point x="202" y="902" type="line"/>
      <point x="187" y="889" type="line"/>
      <point x="156" y="889" type="line"/>
      <point x="140" y="902" type="line"/>
      <point x="140" y="941" type="line"/>
    </contour>
    <contour>
      <point x="171" y="700" type="move" name="_top"/>
    </contour>
  </outline>
</glyph>
<glyph name="ring" format="1">
  <advance width="249"/>
  <unicode hex="02DA"/>
  <outline>
    <contour>
      <point x="51" y="939" type="line"/>
      <point x="0" y="888" type="line"/>
      <point x="0" y="758" type="line"/>
      <point x="51" y="707" type="line"/>
      <point x="198" y="707" type="line"/>
      <point x="249" y="758" type="line"/>
      <point x="249" y="888" type="line"/>
      <point x="198" y="939" type="line"/>
    </contour>
    <contour>
      <point x="145" y="835" type="line"/>
      <point x="145" y="811" type="line"/>
      <point x="134" y="800" type="line"/>
      <point x="117" y="800" type="line"/>
      <point x="104" y="811" type="line"/>
      <point x="104" y="835" type="line"/>
      <point x="117" y="847" type="line"/>
      <point x="134" y="847" type="line"/>
    </contour>
    <contour>
      <point x="124" y="650" type="move" name="_top"/>
    </contour>
  </outline>
</glyph>
<glyph name="ogonek" format="1">
  <advance width="293"/>
  <unicode hex="02DB"/>
  <outline>
    <contour>
      <point x="233" y="0" type="line"/>
      <point x="57" y="0" type="line"/>
      <point x="0" y="-56" type="line"/>
      <point x="0" y="-210" type="line"/>
      <point x="57" y="-266" type="line"/>
      <point x="237" y="-266" type="line"/>
      <point x="293" y="-210" type="line"/>
      <point x="182" y="-142" type="line"/>
      <point x="166" y="-159" type="line"/>
      <point x="141" y="-159" type="line"/>
      <point x="125" y="-144" type="line"/>
      <point x="125" y="-121" type="line"/>
      <point x="141" y="-105" type="line"/>
      <point x="165" y="-105" type="line"/>
    </contour>
    <contour>
      <point x="232" y="0" type="move" name="_ogonek"/>
    </contour>
    <contour>
      <point x="470" y="-299" type="move" name="_top"/>
    </contour>
  </outline>
</glyph>
<glyph name="tilde" format="1">
  <advance width="424"/>
  <unicode hex="02DC"/>
  <outline>
    <contour>
      <point x="75" y="953" type="line"/>
      <point x="0" y="878" type="line"/>
      <point x="0" y="756" type="line"/>
      <point x="145" y="756" type="line"/>
      <point x="145" y="831" type="line"/>
      <point x="161" y="846" type="line"/>
      <point x="176" y="846" type="line"/>
      <point x="223" y="756" type="line"/>
      <point x="349" y="756" type="line"/>
      <point x="424" y="831" type="line"/>
      <point x="424" y="953" type="line"/>
      <point x="280" y="953" type="line"/>
      <point x="280" y="878" type="line"/>
      <point x="264" y="863" type="line"/>
      <point x="249" y="863" type="line"/>
      <point x="202" y="953" type="line"/>
    </contour>
    <contour>
      <point x="209" y="700" type="move" name="_top"/>
    </contour>
  </outline>
</glyph>
<glyph name="hungarumlaut" format="1">
  <advance width="468"/>
  <unicode hex="02DD"/>
  <outline>
    <component base="acute" xOffset="188"/>
    <component base="acute"/>
    <contour>
      <point x="421" y="671" type="move" name="_top"/>
    </contour>
  </outline>
</glyph>
<glyph name="uni0326" format="1">
  <advance width="182"/>
  <unicode hex="0326"/>
  <outline>
    <component base="comma" xOffset="-10" yOffset="-271"/>
    <contour>
      <point x="92" y="0" type="move" name="_bottom"/>
    </contour>
  </outline>
</glyph>
<glyph name="dagger" format="1">
  <advance width="458"/>
  <unicode hex="2020"/>
  <outline>
    <contour>
      <point x="144" y="700" type="line"/>
      <point x="158" y="500" type="line"/>
      <point x="144" y="0" type="line"/>
      <point x="315" y="0" type="line"/>
      <point x="301" y="500" type="line"/>
      <point x="315" y="700" type="line"/>
    </contour>
    <contour>
      <point x="10" y="440" type="line"/>
      <point x="448" y="440" type="line"/>
      <point x="344" y="551" type="line"/>
      <point x="114" y="551" type="line"/>
    </contour>
    <contour>
      <point x="10" y="371" type="line"/>
      <point x="130" y="371" type="line"/>
      <point x="130" y="426" type="line"/>
      <point x="141" y="440" type="line"/>
      <point x="10" y="440" type="line"/>
    </contour>
    <contour>
      <point x="328" y="426" type="line"/>
      <point x="328" y="371" type="line"/>
      <point x="448" y="371" type="line"/>
      <point x="448" y="440" type="line"/>
      <point x="316" y="440" type="line"/>
    </contour>
  </outline>
</glyph>
<glyph name="daggerdbl" format="1">
  <advance width="454"/>
  <unicode hex="2021"/>
  <outline>
    <contour>
      <point x="142" y="700" type="line"/>
      <point x="156" y="500" type="line"/>
      <point x="156" y="200" type="line"/>
      <point x="142" y="0" type="line"/>
      <point x="313" y="0" type="line"/>
      <point x="299" y="200" type="line"/>
      <point x="299" y="500" type="line"/>
      <point x="313" y="700" type="line"/>
    </contour>
    <contour>
      <point x="342" y="571" type="line"/>
      <point x="112" y="571" type="line"/>
      <point x="8" y="460" type="line"/>
      <point x="8" y="391" type="line"/>
      <point x="128" y="391" type="line"/>
      <point x="128" y="446" type="line"/>
      <point x="139" y="460" type="line"/>
      <point x="314" y="460" type="line"/>
      <point x="326" y="446" type="line"/>
      <point x="326" y="391" type="line"/>
      <point x="446" y="391" type="line"/>
      <point x="446" y="460" type="line"/>
    </contour>
    <contour>
      <point x="446" y="311" type="line"/>
      <point x="326" y="311" type="line"/>
      <point x="326" y="256" type="line"/>
      <point x="314" y="242" type="line"/>
      <point x="139" y="242" type="line"/>
      <point x="128" y="256" type="line"/>
      <point x="128" y="311" type="line"/>
      <point x="8" y="311" type="line"/>
      <point x="8" y="242" type="line"/>
      <point x="112" y="131" type="line"/>
      <point x="342" y="131" type="line"/>
      <point x="446" y="242" type="line"/>
    </contour>
  </outline>
</glyph>
<glyph name="guilsinglleft" format="1">
  <advance width="240"/>
  <unicode hex="2039"/>
  <outline>
    <contour>
      <point x="10" y="215" type="line"/>
      <point x="83" y="215" type="line"/>
      <point x="180" y="275" type="line"/>
      <point x="230" y="318" type="line"/>
      <point x="230" y="500" type="line"/>
      <point x="198" y="500" type="line"/>
      <point x="10" y="312" type="line"/>
    </contour>
    <contour>
      <point x="198" y="0" type="line"/>
      <point x="230" y="0" type="line"/>
      <point x="230" y="182" type="line"/>
      <point x="180" y="230" type="line"/>
      <point x="82" y="289" type="line"/>
      <point x="10" y="289" type="line"/>
      <point x="10" y="188" type="line"/>
    </contour>
  </outline>
</glyph>
<glyph name="Euro" format="1">
  <advance width="494"/>
  <unicode hex="20AC"/>
  <outline>
    <contour>
      <point x="200" y="697" type="line"/>
      <point x="85" y="599" type="line"/>
      <point x="85" y="99" type="line"/>
      <point x="200" y="0" type="line"/>
      <point x="360" y="0" type="line"/>
      <point x="468" y="90" type="line"/>
      <point x="468" y="199" type="line"/>
      <point x="307" y="199" type="line"/>
      <point x="307" y="129" type="line"/>
      <point x="293" y="118" type="line"/>
      <point x="269" y="118" type="line"/>
      <point x="256" y="129" type="line"/>
      <point x="256" y="570" type="line"/>
      <point x="270" y="581" type="line"/>
      <point x="293" y="581" type="line"/>
      <point x="306" y="570" type="line"/>
      <point x="306" y="509" type="line"/>
      <point x="468" y="509" type="line"/>
      <point x="468" y="607" type="line"/>
      <point x="359" y="697" type="line"/>
    </contour>
    <contour>
      <point x="8" y="375" type="line"/>
      <point x="385" y="375" type="line"/>
      <point x="403" y="476" type="line"/>
      <point x="26" y="476" type="line"/>
    </contour>
    <contour>
      <point x="8" y="235" type="line"/>
      <point x="385" y="235" type="line"/>
      <point x="403" y="336" type="line"/>
      <point x="26" y="336" type="line"/>
    </contour>
  </outline>
</glyph>
<glyph name="trademark" format="1">
  <advance width="528"/>
  <unicode hex="2122"/>
  <outline>
    <contour>
      <point x="200" y="700" type="line"/>
      <point x="19" y="700" type="line"/>
      <point x="10" y="640" type="line"/>
      <point x="65" y="643" type="line"/>
      <point x="65" y="477" type="line"/>
      <point x="155" y="477" type="line"/>
      <point x="155" y="643" type="line"/>
      <point x="210" y="640" type="line"/>
    </contour>
    <contour>
      <point x="366" y="700" type="line"/>
      <point x="359" y="572" type="line"/>
      <point x="350" y="700" type="line"/>
      <point x="198" y="700" type="line"/>
      <point x="198" y="477" type="line"/>
      <point x="289" y="477" type="line"/>
      <point x="289" y="585" type="line"/>
      <point x="290" y="643" type="line"/>
      <point x="293" y="648" type="line"/>
      <point x="297" y="643" type="line"/>
      <point x="305" y="585" type="line"/>
      <point x="319" y="477" type="line"/>
      <point x="398" y="477" type="line"/>
      <point x="411" y="585" type="line"/>
      <point x="419" y="643" type="line"/>
      <point x="423" y="648" type="line"/>
      <point x="426" y="643" type="line"/>
      <point x="427" y="585" type="line"/>
      <point x="427" y="477" type="line"/>
      <point x="518" y="477" type="line"/>
      <point x="518" y="700" type="line"/>
    </contour>
  </outline>
</glyph>
<glyph name="lozenge" format="1">
  <advance width="402"/>
  <unicode hex="25CA"/>
  <outline>
    <contour>
      <point x="201" y="466" type="line"/>
      <point x="201" y="700" type="line"/>
      <point x="188" y="700" type="line"/>
      <point x="8" y="381" type="line"/>
      <point x="8" y="319" type="line"/>
      <point x="188" y="0" type="line"/>
      <point x="201" y="0" type="line"/>
      <point x="201" y="234" type="line"/>
      <point x="145" y="354" type="line"/>
    </contour>
    <contour>
      <point x="257" y="354" type="line"/>
      <point x="196" y="234" type="line"/>
      <point x="196" y="0" type="line"/>
      <point x="209" y="0" type="line"/>
      <point x="394" y="319" type="line"/>
      <point x="394" y="381" type="line"/>
      <point x="209" y="700" type="line"/>
      <point x="196" y="700" type="line"/>
      <point x="196" y="466" type="line"/>
    </contour>
  </outline>
</glyph>
<glyph name="eight.osf" format="1">
  <advance width="476"/>
  <outline>
    <contour>
      <point x="173" y="315" type="line"/>
      <point x="173" y="192" type="line"/>
      <point x="257" y="192" type="line"/>
      <point x="281" y="171" type="line"/>
      <point x="281" y="138" type="line"/>
      <point x="261" y="120" type="line"/>
      <point x="212" y="120" type="line"/>
      <point x="171" y="0" type="line"/>
      <point x="336" y="0" type="line"/>
      <point x="456" y="103" type="line"/>
      <point x="456" y="213" type="line"/>
      <point x="336" y="315" type="line"/>
    </contour>
    <contour>
      <point x="140" y="315" type="line"/>
      <point x="20" y="213" type="line"/>
      <point x="20" y="103" type="line"/>
      <point x="140" y="0" type="line"/>
      <point x="305" y="0" type="line"/>
      <point x="264" y="120" type="line"/>
      <point x="215" y="120" type="line"/>
      <point x="195" y="138" type="line"/>
      <point x="195" y="171" type="line"/>
      <point x="219" y="192" type="line"/>
      <point x="303" y="192" type="line"/>
      <point x="303" y="315" type="line"/>
    </contour>
    <contour>
      <point x="153" y="500" type="line"/>
      <point x="33" y="397" type="line"/>
      <point x="33" y="333" type="line"/>
      <point x="109" y="270" type="line"/>
      <point x="309" y="270" type="line"/>
      <point x="309" y="325" type="line"/>
      <point x="225" y="325" type="line"/>
      <point x="208" y="340" type="line"/>
      <point x="208" y="368" type="line"/>
      <point x="226" y="385" type="line"/>
      <point x="265" y="385" type="line"/>
      <point x="323" y="500" type="line"/>
    </contour>
    <contour>
      <point x="153" y="500" type="line"/>
      <point x="211" y="385" type="line"/>
      <point x="250" y="385" type="line"/>
      <point x="268" y="368" type="line"/>
      <point x="268" y="340" type="line"/>
      <point x="251" y="325" type="line"/>
      <point x="167" y="325" type="line"/>
      <point x="167" y="270" type="line"/>
      <point x="367" y="270" type="line"/>
      <point x="443" y="333" type="line"/>
      <point x="443" y="397" type="line"/>
      <point x="323" y="500" type="line"/>
    </contour>
  </outline>
</glyph>
<glyph name="five.osf" format="1">
  <advance width="420"/>
  <outline>
    <contour>
      <point x="33" y="500" type="line"/>
      <point x="33" y="276" type="line"/>
      <point x="108" y="205" type="line"/>
      <point x="201" y="207" type="line"/>
      <point x="221" y="189" type="line"/>
      <point x="221" y="130" type="line"/>
      <point x="207" y="118" type="line"/>
      <point x="197" y="118" type="line"/>
      <point x="183" y="130" type="line"/>
      <point x="183" y="181" type="line"/>
      <point x="26" y="181" type="line"/>
      <point x="26" y="84" type="line"/>
      <point x="129" y="0" type="line"/>
      <point x="281" y="0" type="line"/>
      <point x="394" y="99" type="line"/>
      <point x="394" y="252" type="line"/>
      <point x="310" y="336" type="line"/>
      <point x="198" y="336" type="line"/>
      <point x="198" y="364" type="line"/>
      <point x="367" y="364" type="line"/>
      <point x="381" y="500" type="line"/>
    </contour>
  </outline>
</glyph>
<glyph name="four.osf" format="1">
  <advance width="421"/>
  <outline>
    <contour>
      <point x="173" y="500" type="line"/>
      <point x="-5" y="228" type="line"/>
      <point x="-5" y="179" type="line"/>
      <point x="53" y="78" type="line"/>
      <point x="420" y="78" type="line"/>
      <point x="426" y="196" type="line"/>
      <point x="149" y="196" type="line"/>
      <point x="145" y="201" type="line"/>
      <point x="145" y="213" type="line"/>
      <point x="195" y="324" type="line"/>
      <point x="208" y="353" type="line"/>
      <point x="252" y="362" type="line"/>
      <point x="289" y="500" type="line"/>
    </contour>
    <component base="i" xOffset="173"/>
  </outline>
</glyph>
<glyph name="nine.osf" format="1">
  <advance width="457"/>
  <outline>
    <contour>
      <point x="146" y="500" type="line"/>
      <point x="26" y="397" type="line"/>
      <point x="26" y="289" type="line"/>
      <point x="146" y="187" type="line"/>
      <point x="225" y="187" type="line"/>
      <point x="255" y="212" type="line"/>
      <point x="255" y="311" type="line"/>
      <point x="238" y="298" type="line"/>
      <point x="224" y="298" type="line"/>
      <point x="200" y="319" type="line"/>
      <point x="200" y="362" type="line"/>
      <point x="220" y="380" type="line"/>
      <point x="233" y="380" type="line"/>
      <point x="253" y="363" type="line"/>
      <point x="253" y="132" type="line"/>
      <point x="234" y="115" type="line"/>
      <point x="215" y="115" type="line"/>
      <point x="196" y="129" type="line"/>
      <point x="196" y="168" type="line"/>
      <point x="31" y="168" type="line"/>
      <point x="31" y="84" type="line"/>
      <point x="131" y="0" type="line"/>
      <point x="307" y="0" type="line"/>
      <point x="427" y="103" type="line"/>
      <point x="427" y="398" type="line"/>
      <point x="307" y="500" type="line"/>
    </contour>
  </outline>
</glyph>
<glyph name="one.osf" format="1">
  <advance width="238"/>
  <outline>
    <contour>
      <point x="49" y="414" type="line"/>
      <point x="49" y="0" type="line"/>
      <point x="219" y="0" type="line"/>
      <point x="219" y="500" type="line"/>
      <point x="43" y="500" type="line"/>
      <point x="19" y="425" type="line"/>
      <point x="19" y="414" type="line"/>
    </contour>
  </outline>
</glyph>
<glyph name="seven.osf" format="1">
  <advance width="374"/>
  <outline>
    <contour>
      <point x="207" y="500" type="line"/>
      <point x="157" y="338" type="line"/>
      <point x="63" y="104" type="line"/>
      <point x="54" y="0" type="line"/>
      <point x="217" y="0" type="line"/>
      <point x="293" y="234" type="line"/>
      <point x="362" y="441" type="line"/>
      <point x="359" y="500" type="line"/>
    </contour>
    <contour>
      <point x="22" y="500" type="line"/>
      <point x="12" y="385" type="line"/>
      <point x="131" y="385" type="line"/>
      <point x="217" y="385" type="line"/>
      <point x="217" y="500" type="line"/>
    </contour>
  </outline>
</glyph>
<glyph name="six.osf" format="1">
  <advance width="458"/>
  <outline>
    <contour>
      <point x="232" y="318" type="line"/>
      <point x="202" y="293" type="line"/>
      <point x="203" y="190" type="line"/>
      <point x="219" y="203" type="line"/>
      <point x="233" y="203" type="line"/>
      <point x="257" y="191" type="line"/>
      <point x="257" y="138" type="line"/>
      <point x="237" y="120" type="line"/>
      <point x="188" y="120" type="line"/>
      <point x="147" y="0" type="line"/>
      <point x="312" y="0" type="line"/>
      <point x="432" y="103" type="line"/>
      <point x="432" y="216" type="line"/>
      <point x="312" y="318" type="line"/>
    </contour>
    <contour>
      <point x="30" y="159" type="line"/>
      <point x="30" y="99" type="line"/>
      <point x="147" y="0" type="line"/>
      <point x="224" y="120" type="line"/>
      <point x="204" y="137" type="line"/>
      <point x="204" y="159" type="line"/>
    </contour>
    <contour>
      <point x="241" y="386" type="line"/>
      <point x="261" y="371" type="line"/>
      <point x="261" y="332" type="line"/>
      <point x="420" y="332" type="line"/>
      <point x="420" y="416" type="line"/>
      <point x="321" y="500" type="line"/>
    </contour>
    <contour>
      <point x="30" y="397" type="line"/>
      <point x="30" y="106" type="line"/>
      <point x="204" y="114" type="line"/>
      <point x="204" y="368" type="line"/>
      <point x="223" y="385" type="line"/>
      <point x="262" y="385" type="line"/>
      <point x="320" y="500" type="line"/>
      <point x="150" y="500" type="line"/>
    </contour>
  </outline>
</glyph>
<glyph name="three.osf" format="1">
  <advance width="453"/>
  <outline>
    <contour>
      <point x="153" y="317" type="line"/>
      <point x="153" y="204" type="line"/>
      <point x="229" y="204" type="line"/>
      <point x="253" y="183" type="line"/>
      <point x="253" y="138" type="line"/>
      <point x="233" y="120" type="line"/>
      <point x="184" y="120" type="line"/>
      <point x="133" y="0" type="line"/>
      <point x="318" y="0" type="line"/>
      <point x="428" y="93" type="line"/>
      <point x="428" y="215" type="line"/>
      <point x="308" y="317" type="line"/>
    </contour>
    <contour>
      <point x="26" y="177" type="line"/>
      <point x="26" y="89" type="line"/>
      <point x="133" y="0" type="line"/>
      <point x="208" y="120" type="line"/>
      <point x="188" y="137" type="line"/>
      <point x="188" y="177" type="line"/>
    </contour>
    <contour>
      <point x="31" y="416" type="line"/>
      <point x="31" y="340" type="line"/>
      <point x="190" y="340" type="line"/>
      <point x="190" y="371" type="line"/>
      <point x="210" y="386" type="line"/>
      <point x="130" y="500" type="line"/>
    </contour>
    <contour>
      <point x="131" y="500" type="line"/>
      <point x="189" y="385" type="line"/>
      <point x="228" y="385" type="line"/>
      <point x="246" y="368" type="line"/>
      <point x="246" y="333" type="line"/>
      <point x="229" y="317" type="line"/>
      <point x="153" y="317" type="line"/>
      <point x="153" y="232" type="line"/>
      <point x="325" y="232" type="line"/>
      <point x="421" y="315" type="line"/>
      <point x="421" y="407" type="line"/>
      <point x="310" y="500" type="line"/>
    </contour>
  </outline>
</glyph>
<glyph name="two.osf" format="1">
  <advance width="397"/>
  <outline>
    <contour>
      <point x="124" y="500" type="line"/>
      <point x="12" y="414" type="line"/>
      <point x="12" y="310" type="line"/>
      <point x="171" y="310" type="line"/>
      <point x="171" y="372" type="line"/>
      <point x="185" y="384" type="line"/>
      <point x="206" y="384" type="line"/>
      <point x="218" y="374" type="line"/>
      <point x="218" y="327" type="line"/>
      <point x="209" y="299" type="line"/>
      <point x="14" y="198" type="line"/>
      <point x="14" y="79" type="line"/>
      <point x="104" y="0" type="line"/>
      <point x="371" y="0" type="line"/>
      <point x="378" y="143" type="line"/>
      <point x="200" y="143" type="line"/>
      <point x="188" y="153" type="line"/>
      <point x="188" y="153" type="line"/>
      <point x="197" y="168" type="line"/>
      <point x="351" y="205" type="line"/>
      <point x="385" y="297" type="line"/>
      <point x="385" y="402" type="line"/>
      <point x="274" y="500" type="line"/>
    </contour>
  </outline>
</glyph>
